<?xml version="1.0" encoding="UTF-8"?>
<svg width="513px" height="339px" viewBox="0 0 513 339" version="1.1" xmlns="http://www.w3.org/2000/svg" xmlns:xlink="http://www.w3.org/1999/xlink">
    <!-- Generator: Sketch 42 (36781) - http://www.bohemiancoding.com/sketch -->
    <title>sky-background</title>
    <desc>Created with Sketch.</desc>
    <defs>
        <path d="M62.2792842,0 C76.0184835,0 87.1909978,10.0217344 87.1909978,22.3333333 C87.1909978,23.3201875 87.1180143,24.3072161 86.9660139,25.2776693 C94.6536131,29.1706484 99.6468547,36.5261667 99.6468547,44.6666667 C99.6468547,56.983849 88.4743403,67 74.735141,67 L21.7977495,67 C9.77979384,67 0,58.2324219 0,47.4583333 C0,38.6145078 6.58369883,31.1227214 15.5881156,28.7236328 C15.5758543,28.4565052 15.569821,28.1893776 15.569821,27.9166667 C15.569821,17.1425781 25.3496149,8.375 37.3675705,8.375 C39.0613724,8.375 40.7279271,8.55488802 42.3608121,8.90942969 C46.995364,3.375125 54.3118175,0 62.2792842,0 Z" id="path-1"></path>
        <mask id="mask-2" maskContentUnits="userSpaceOnUse" maskUnits="objectBoundingBox" x="0" y="0" width="99.6468547" height="67" fill="white">
            <use xlink:href="#path-1"></use>
        </mask>
        <path d="M62.2792842,0 C76.0184835,0 87.1909978,10.0217344 87.1909978,22.3333333 C87.1909978,23.3201875 87.1180143,24.3072161 86.9660139,25.2776693 C94.6536131,29.1706484 99.6468547,36.5261667 99.6468547,44.6666667 C99.6468547,56.983849 88.4743403,67 74.735141,67 L21.7977495,67 C9.77979384,67 0,58.2324219 0,47.4583333 C0,38.6145078 6.58369883,31.1227214 15.5881156,28.7236328 C15.5758543,28.4565052 15.569821,28.1893776 15.569821,27.9166667 C15.569821,17.1425781 25.3496149,8.375 37.3675705,8.375 C39.0613724,8.375 40.7279271,8.55488802 42.3608121,8.90942969 C46.995364,3.375125 54.3118175,0 62.2792842,0 Z" id="path-3"></path>
        <mask id="mask-4" maskContentUnits="userSpaceOnUse" maskUnits="objectBoundingBox" x="0" y="0" width="99.6468547" height="67" fill="white">
            <use xlink:href="#path-3"></use>
        </mask>
        <path d="M62.2792842,0 C76.0184835,0 87.1909978,10.0217344 87.1909978,22.3333333 C87.1909978,23.3201875 87.1180143,24.3072161 86.9660139,25.2776693 C94.6536131,29.1706484 99.6468547,36.5261667 99.6468547,44.6666667 C99.6468547,56.983849 88.4743403,67 74.735141,67 L21.7977495,67 C9.77979384,67 0,58.2324219 0,47.4583333 C0,38.6145078 6.58369883,31.1227214 15.5881156,28.7236328 C15.5758543,28.4565052 15.569821,28.1893776 15.569821,27.9166667 C15.569821,17.1425781 25.3496149,8.375 37.3675705,8.375 C39.0613724,8.375 40.7279271,8.55488802 42.3608121,8.90942969 C46.995364,3.375125 54.3118175,0 62.2792842,0 Z" id="path-5"></path>
        <mask id="mask-6" maskContentUnits="userSpaceOnUse" maskUnits="objectBoundingBox" x="0" y="0" width="99.6468547" height="67" fill="white">
            <use xlink:href="#path-5"></use>
        </mask>
        <path d="M62.2792842,0 C76.0184835,0 87.1909978,10.0217344 87.1909978,22.3333333 C87.1909978,23.3201875 87.1180143,24.3072161 86.9660139,25.2776693 C94.6536131,29.1706484 99.6468547,36.5261667 99.6468547,44.6666667 C99.6468547,56.983849 88.4743403,67 74.735141,67 L21.7977495,67 C9.77979384,67 0,58.2324219 0,47.4583333 C0,38.6145078 6.58369883,31.1227214 15.5881156,28.7236328 C15.5758543,28.4565052 15.569821,28.1893776 15.569821,27.9166667 C15.569821,17.1425781 25.3496149,8.375 37.3675705,8.375 C39.0613724,8.375 40.7279271,8.55488802 42.3608121,8.90942969 C46.995364,3.375125 54.3118175,0 62.2792842,0 Z" id="path-7"></path>
        <mask id="mask-8" maskContentUnits="userSpaceOnUse" maskUnits="objectBoundingBox" x="0" y="0" width="99.6468547" height="67" fill="white">
            <use xlink:href="#path-7"></use>
        </mask>
        <path d="M62.2792842,0 C76.0184835,0 87.1909978,10.0217344 87.1909978,22.3333333 C87.1909978,23.3201875 87.1180143,24.3072161 86.9660139,25.2776693 C94.6536131,29.1706484 99.6468547,36.5261667 99.6468547,44.6666667 C99.6468547,56.983849 88.4743403,67 74.735141,67 L21.7977495,67 C9.77979384,67 0,58.2324219 0,47.4583333 C0,38.6145078 6.58369883,31.1227214 15.5881156,28.7236328 C15.5758543,28.4565052 15.569821,28.1893776 15.569821,27.9166667 C15.569821,17.1425781 25.3496149,8.375 37.3675705,8.375 C39.0613724,8.375 40.7279271,8.55488802 42.3608121,8.90942969 C46.995364,3.375125 54.3118175,0 62.2792842,0 Z" id="path-9"></path>
        <mask id="mask-10" maskContentUnits="userSpaceOnUse" maskUnits="objectBoundingBox" x="0" y="0" width="99.6468547" height="67" fill="white">
            <use xlink:href="#path-9"></use>
        </mask>
        <path d="M62.2792842,0 C76.0184835,0 87.1909978,10.0217344 87.1909978,22.3333333 C87.1909978,23.3201875 87.1180143,24.3072161 86.9660139,25.2776693 C94.6536131,29.1706484 99.6468547,36.5261667 99.6468547,44.6666667 C99.6468547,56.983849 88.4743403,67 74.735141,67 L21.7977495,67 C9.77979384,67 0,58.2324219 0,47.4583333 C0,38.6145078 6.58369883,31.1227214 15.5881156,28.7236328 C15.5758543,28.4565052 15.569821,28.1893776 15.569821,27.9166667 C15.569821,17.1425781 25.3496149,8.375 37.3675705,8.375 C39.0613724,8.375 40.7279271,8.55488802 42.3608121,8.90942969 C46.995364,3.375125 54.3118175,0 62.2792842,0 Z" id="path-11"></path>
        <mask id="mask-12" maskContentUnits="userSpaceOnUse" maskUnits="objectBoundingBox" x="0" y="0" width="99.6468547" height="67" fill="white">
            <use xlink:href="#path-11"></use>
        </mask>
        <path d="M62.2792842,0 C76.0184835,0 87.1909978,10.0217344 87.1909978,22.3333333 C87.1909978,23.3201875 87.1180143,24.3072161 86.9660139,25.2776693 C94.6536131,29.1706484 99.6468547,36.5261667 99.6468547,44.6666667 C99.6468547,56.983849 88.4743403,67 74.735141,67 L21.7977495,67 C9.77979384,67 0,58.2324219 0,47.4583333 C0,38.6145078 6.58369883,31.1227214 15.5881156,28.7236328 C15.5758543,28.4565052 15.569821,28.1893776 15.569821,27.9166667 C15.569821,17.1425781 25.3496149,8.375 37.3675705,8.375 C39.0613724,8.375 40.7279271,8.55488802 42.3608121,8.90942969 C46.995364,3.375125 54.3118175,0 62.2792842,0 Z" id="path-13"></path>
        <mask id="mask-14" maskContentUnits="userSpaceOnUse" maskUnits="objectBoundingBox" x="0" y="0" width="99.6468547" height="67" fill="white">
            <use xlink:href="#path-13"></use>
        </mask>
        <path d="M62.2792842,0 C76.0184835,0 87.1909978,10.0217344 87.1909978,22.3333333 C87.1909978,23.3201875 87.1180143,24.3072161 86.9660139,25.2776693 C94.6536131,29.1706484 99.6468547,36.5261667 99.6468547,44.6666667 C99.6468547,56.983849 88.4743403,67 74.735141,67 L21.7977495,67 C9.77979384,67 0,58.2324219 0,47.4583333 C0,38.6145078 6.58369883,31.1227214 15.5881156,28.7236328 C15.5758543,28.4565052 15.569821,28.1893776 15.569821,27.9166667 C15.569821,17.1425781 25.3496149,8.375 37.3675705,8.375 C39.0613724,8.375 40.7279271,8.55488802 42.3608121,8.90942969 C46.995364,3.375125 54.3118175,0 62.2792842,0 Z" id="path-15"></path>
        <mask id="mask-16" maskContentUnits="userSpaceOnUse" maskUnits="objectBoundingBox" x="0" y="0" width="99.6468547" height="67" fill="white">
            <use xlink:href="#path-15"></use>
        </mask>
        <path d="M62.2792842,0 C76.0184835,0 87.1909978,10.0217344 87.1909978,22.3333333 C87.1909978,23.3201875 87.1180143,24.3072161 86.9660139,25.2776693 C94.6536131,29.1706484 99.6468547,36.5261667 99.6468547,44.6666667 C99.6468547,56.983849 88.4743403,67 74.735141,67 L21.7977495,67 C9.77979384,67 0,58.2324219 0,47.4583333 C0,38.6145078 6.58369883,31.1227214 15.5881156,28.7236328 C15.5758543,28.4565052 15.569821,28.1893776 15.569821,27.9166667 C15.569821,17.1425781 25.3496149,8.375 37.3675705,8.375 C39.0613724,8.375 40.7279271,8.55488802 42.3608121,8.90942969 C46.995364,3.375125 54.3118175,0 62.2792842,0 Z" id="path-17"></path>
        <mask id="mask-18" maskContentUnits="userSpaceOnUse" maskUnits="objectBoundingBox" x="0" y="0" width="99.6468547" height="67" fill="white">
            <use xlink:href="#path-17"></use>
        </mask>
        <path d="M62.2792842,0 C76.0184835,0 87.1909978,10.0217344 87.1909978,22.3333333 C87.1909978,23.3201875 87.1180143,24.3072161 86.9660139,25.2776693 C94.6536131,29.1706484 99.6468547,36.5261667 99.6468547,44.6666667 C99.6468547,56.983849 88.4743403,67 74.735141,67 L21.7977495,67 C9.77979384,67 0,58.2324219 0,47.4583333 C0,38.6145078 6.58369883,31.1227214 15.5881156,28.7236328 C15.5758543,28.4565052 15.569821,28.1893776 15.569821,27.9166667 C15.569821,17.1425781 25.3496149,8.375 37.3675705,8.375 C39.0613724,8.375 40.7279271,8.55488802 42.3608121,8.90942969 C46.995364,3.375125 54.3118175,0 62.2792842,0 Z" id="path-19"></path>
        <mask id="mask-20" maskContentUnits="userSpaceOnUse" maskUnits="objectBoundingBox" x="0" y="0" width="99.6468547" height="67" fill="white">
            <use xlink:href="#path-19"></use>
        </mask>
        <path d="M62.2792842,0 C76.0184835,0 87.1909978,10.0217344 87.1909978,22.3333333 C87.1909978,23.3201875 87.1180143,24.3072161 86.9660139,25.2776693 C94.6536131,29.1706484 99.6468547,36.5261667 99.6468547,44.6666667 C99.6468547,56.983849 88.4743403,67 74.735141,67 L21.7977495,67 C9.77979384,67 0,58.2324219 0,47.4583333 C0,38.6145078 6.58369883,31.1227214 15.5881156,28.7236328 C15.5758543,28.4565052 15.569821,28.1893776 15.569821,27.9166667 C15.569821,17.1425781 25.3496149,8.375 37.3675705,8.375 C39.0613724,8.375 40.7279271,8.55488802 42.3608121,8.90942969 C46.995364,3.375125 54.3118175,0 62.2792842,0 Z" id="path-21"></path>
        <mask id="mask-22" maskContentUnits="userSpaceOnUse" maskUnits="objectBoundingBox" x="0" y="0" width="99.6468547" height="67" fill="white">
            <use xlink:href="#path-21"></use>
        </mask>
        <path d="M62.2792842,0 C76.0184835,0 87.1909978,10.0217344 87.1909978,22.3333333 C87.1909978,23.3201875 87.1180143,24.3072161 86.9660139,25.2776693 C94.6536131,29.1706484 99.6468547,36.5261667 99.6468547,44.6666667 C99.6468547,56.983849 88.4743403,67 74.735141,67 L21.7977495,67 C9.77979384,67 0,58.2324219 0,47.4583333 C0,38.6145078 6.58369883,31.1227214 15.5881156,28.7236328 C15.5758543,28.4565052 15.569821,28.1893776 15.569821,27.9166667 C15.569821,17.1425781 25.3496149,8.375 37.3675705,8.375 C39.0613724,8.375 40.7279271,8.55488802 42.3608121,8.90942969 C46.995364,3.375125 54.3118175,0 62.2792842,0 Z" id="path-23"></path>
        <mask id="mask-24" maskContentUnits="userSpaceOnUse" maskUnits="objectBoundingBox" x="0" y="0" width="99.6468547" height="67" fill="white">
            <use xlink:href="#path-23"></use>
        </mask>
        <path d="M62.2792842,0 C76.0184835,0 87.1909978,10.0217344 87.1909978,22.3333333 C87.1909978,23.3201875 87.1180143,24.3072161 86.9660139,25.2776693 C94.6536131,29.1706484 99.6468547,36.5261667 99.6468547,44.6666667 C99.6468547,56.983849 88.4743403,67 74.735141,67 L21.7977495,67 C9.77979384,67 0,58.2324219 0,47.4583333 C0,38.6145078 6.58369883,31.1227214 15.5881156,28.7236328 C15.5758543,28.4565052 15.569821,28.1893776 15.569821,27.9166667 C15.569821,17.1425781 25.3496149,8.375 37.3675705,8.375 C39.0613724,8.375 40.7279271,8.55488802 42.3608121,8.90942969 C46.995364,3.375125 54.3118175,0 62.2792842,0 Z" id="path-25"></path>
        <mask id="mask-26" maskContentUnits="userSpaceOnUse" maskUnits="objectBoundingBox" x="0" y="0" width="99.6468547" height="67" fill="white">
            <use xlink:href="#path-25"></use>
        </mask>
        <path d="M62.2792842,0 C76.0184835,0 87.1909978,10.0217344 87.1909978,22.3333333 C87.1909978,23.3201875 87.1180143,24.3072161 86.9660139,25.2776693 C94.6536131,29.1706484 99.6468547,36.5261667 99.6468547,44.6666667 C99.6468547,56.983849 88.4743403,67 74.735141,67 L21.7977495,67 C9.77979384,67 0,58.2324219 0,47.4583333 C0,38.6145078 6.58369883,31.1227214 15.5881156,28.7236328 C15.5758543,28.4565052 15.569821,28.1893776 15.569821,27.9166667 C15.569821,17.1425781 25.3496149,8.375 37.3675705,8.375 C39.0613724,8.375 40.7279271,8.55488802 42.3608121,8.90942969 C46.995364,3.375125 54.3118175,0 62.2792842,0 Z" id="path-27"></path>
        <mask id="mask-28" maskContentUnits="userSpaceOnUse" maskUnits="objectBoundingBox" x="0" y="0" width="99.6468547" height="67" fill="white">
            <use xlink:href="#path-27"></use>
        </mask>
        <path d="M62.2792842,0 C76.0184835,0 87.1909978,10.0217344 87.1909978,22.3333333 C87.1909978,23.3201875 87.1180143,24.3072161 86.9660139,25.2776693 C94.6536131,29.1706484 99.6468547,36.5261667 99.6468547,44.6666667 C99.6468547,56.983849 88.4743403,67 74.735141,67 L21.7977495,67 C9.77979384,67 0,58.2324219 0,47.4583333 C0,38.6145078 6.58369883,31.1227214 15.5881156,28.7236328 C15.5758543,28.4565052 15.569821,28.1893776 15.569821,27.9166667 C15.569821,17.1425781 25.3496149,8.375 37.3675705,8.375 C39.0613724,8.375 40.7279271,8.55488802 42.3608121,8.90942969 C46.995364,3.375125 54.3118175,0 62.2792842,0 Z" id="path-29"></path>
        <mask id="mask-30" maskContentUnits="userSpaceOnUse" maskUnits="objectBoundingBox" x="0" y="0" width="99.6468547" height="67" fill="white">
            <use xlink:href="#path-29"></use>
        </mask>
        <path d="M62.2792842,0 C76.0184835,0 87.1909978,10.0217344 87.1909978,22.3333333 C87.1909978,23.3201875 87.1180143,24.3072161 86.9660139,25.2776693 C94.6536131,29.1706484 99.6468547,36.5261667 99.6468547,44.6666667 C99.6468547,56.983849 88.4743403,67 74.735141,67 L21.7977495,67 C9.77979384,67 0,58.2324219 0,47.4583333 C0,38.6145078 6.58369883,31.1227214 15.5881156,28.7236328 C15.5758543,28.4565052 15.569821,28.1893776 15.569821,27.9166667 C15.569821,17.1425781 25.3496149,8.375 37.3675705,8.375 C39.0613724,8.375 40.7279271,8.55488802 42.3608121,8.90942969 C46.995364,3.375125 54.3118175,0 62.2792842,0 Z" id="path-31"></path>
        <mask id="mask-32" maskContentUnits="userSpaceOnUse" maskUnits="objectBoundingBox" x="0" y="0" width="99.6468547" height="67" fill="white">
            <use xlink:href="#path-31"></use>
        </mask>
        <path d="M62.2792842,0 C76.0184835,0 87.1909978,10.0217344 87.1909978,22.3333333 C87.1909978,23.3201875 87.1180143,24.3072161 86.9660139,25.2776693 C94.6536131,29.1706484 99.6468547,36.5261667 99.6468547,44.6666667 C99.6468547,56.983849 88.4743403,67 74.735141,67 L21.7977495,67 C9.77979384,67 0,58.2324219 0,47.4583333 C0,38.6145078 6.58369883,31.1227214 15.5881156,28.7236328 C15.5758543,28.4565052 15.569821,28.1893776 15.569821,27.9166667 C15.569821,17.1425781 25.3496149,8.375 37.3675705,8.375 C39.0613724,8.375 40.7279271,8.55488802 42.3608121,8.90942969 C46.995364,3.375125 54.3118175,0 62.2792842,0 Z" id="path-33"></path>
        <mask id="mask-34" maskContentUnits="userSpaceOnUse" maskUnits="objectBoundingBox" x="0" y="0" width="99.6468547" height="67" fill="white">
            <use xlink:href="#path-33"></use>
        </mask>
        <path d="M62.2792842,0 C76.0184835,0 87.1909978,10.0217344 87.1909978,22.3333333 C87.1909978,23.3201875 87.1180143,24.3072161 86.9660139,25.2776693 C94.6536131,29.1706484 99.6468547,36.5261667 99.6468547,44.6666667 C99.6468547,56.983849 88.4743403,67 74.735141,67 L21.7977495,67 C9.77979384,67 0,58.2324219 0,47.4583333 C0,38.6145078 6.58369883,31.1227214 15.5881156,28.7236328 C15.5758543,28.4565052 15.569821,28.1893776 15.569821,27.9166667 C15.569821,17.1425781 25.3496149,8.375 37.3675705,8.375 C39.0613724,8.375 40.7279271,8.55488802 42.3608121,8.90942969 C46.995364,3.375125 54.3118175,0 62.2792842,0 Z" id="path-35"></path>
        <mask id="mask-36" maskContentUnits="userSpaceOnUse" maskUnits="objectBoundingBox" x="0" y="0" width="99.6468547" height="67" fill="white">
            <use xlink:href="#path-35"></use>
        </mask>
        <path d="M62.2792842,0 C76.0184835,0 87.1909978,10.0217344 87.1909978,22.3333333 C87.1909978,23.3201875 87.1180143,24.3072161 86.9660139,25.2776693 C94.6536131,29.1706484 99.6468547,36.5261667 99.6468547,44.6666667 C99.6468547,56.983849 88.4743403,67 74.735141,67 L21.7977495,67 C9.77979384,67 0,58.2324219 0,47.4583333 C0,38.6145078 6.58369883,31.1227214 15.5881156,28.7236328 C15.5758543,28.4565052 15.569821,28.1893776 15.569821,27.9166667 C15.569821,17.1425781 25.3496149,8.375 37.3675705,8.375 C39.0613724,8.375 40.7279271,8.55488802 42.3608121,8.90942969 C46.995364,3.375125 54.3118175,0 62.2792842,0 Z" id="path-37"></path>
        <mask id="mask-38" maskContentUnits="userSpaceOnUse" maskUnits="objectBoundingBox" x="0" y="0" width="99.6468547" height="67" fill="white">
            <use xlink:href="#path-37"></use>
        </mask>
        <path d="M62.2792842,0 C76.0184835,0 87.1909978,10.0217344 87.1909978,22.3333333 C87.1909978,23.3201875 87.1180143,24.3072161 86.9660139,25.2776693 C94.6536131,29.1706484 99.6468547,36.5261667 99.6468547,44.6666667 C99.6468547,56.983849 88.4743403,67 74.735141,67 L21.7977495,67 C9.77979384,67 0,58.2324219 0,47.4583333 C0,38.6145078 6.58369883,31.1227214 15.5881156,28.7236328 C15.5758543,28.4565052 15.569821,28.1893776 15.569821,27.9166667 C15.569821,17.1425781 25.3496149,8.375 37.3675705,8.375 C39.0613724,8.375 40.7279271,8.55488802 42.3608121,8.90942969 C46.995364,3.375125 54.3118175,0 62.2792842,0 Z" id="path-39"></path>
        <mask id="mask-40" maskContentUnits="userSpaceOnUse" maskUnits="objectBoundingBox" x="0" y="0" width="99.6468547" height="67" fill="white">
            <use xlink:href="#path-39"></use>
        </mask>
        <path d="M62.2792842,0 C76.0184835,0 87.1909978,10.0217344 87.1909978,22.3333333 C87.1909978,23.3201875 87.1180143,24.3072161 86.9660139,25.2776693 C94.6536131,29.1706484 99.6468547,36.5261667 99.6468547,44.6666667 C99.6468547,56.983849 88.4743403,67 74.735141,67 L21.7977495,67 C9.77979384,67 0,58.2324219 0,47.4583333 C0,38.6145078 6.58369883,31.1227214 15.5881156,28.7236328 C15.5758543,28.4565052 15.569821,28.1893776 15.569821,27.9166667 C15.569821,17.1425781 25.3496149,8.375 37.3675705,8.375 C39.0613724,8.375 40.7279271,8.55488802 42.3608121,8.90942969 C46.995364,3.375125 54.3118175,0 62.2792842,0 Z" id="path-41"></path>
        <mask id="mask-42" maskContentUnits="userSpaceOnUse" maskUnits="objectBoundingBox" x="0" y="0" width="99.6468547" height="67" fill="white">
            <use xlink:href="#path-41"></use>
        </mask>
        <path d="M62.2792842,0 C76.0184835,0 87.1909978,10.0217344 87.1909978,22.3333333 C87.1909978,23.3201875 87.1180143,24.3072161 86.9660139,25.2776693 C94.6536131,29.1706484 99.6468547,36.5261667 99.6468547,44.6666667 C99.6468547,56.983849 88.4743403,67 74.735141,67 L21.7977495,67 C9.77979384,67 0,58.2324219 0,47.4583333 C0,38.6145078 6.58369883,31.1227214 15.5881156,28.7236328 C15.5758543,28.4565052 15.569821,28.1893776 15.569821,27.9166667 C15.569821,17.1425781 25.3496149,8.375 37.3675705,8.375 C39.0613724,8.375 40.7279271,8.55488802 42.3608121,8.90942969 C46.995364,3.375125 54.3118175,0 62.2792842,0 Z" id="path-43"></path>
        <mask id="mask-44" maskContentUnits="userSpaceOnUse" maskUnits="objectBoundingBox" x="0" y="0" width="99.6468547" height="67" fill="white">
            <use xlink:href="#path-43"></use>
        </mask>
    </defs>
    <g id="Page-1" stroke="none" stroke-width="1" fill="none" fill-rule="evenodd">
        <g id="sky-background">
            <g id="cloud-2" transform="translate(272.000000, 304.500000) scale(-1, 1) translate(-272.000000, -304.500000) translate(222.000000, 271.000000)">
                <g id="Layer_1">
                    <use id="Combined-Shape" stroke="#527D99" mask="url(#mask-2)" stroke-width="2" fill="#D2E3ED" xlink:href="#path-1"></use>
                    <path d="M62.2792842,5.58333333 C72.6003239,5.58333333 80.9630694,13.0805286 80.9630694,22.3333333 C80.9630694,24.5361328 80.458218,26.6298828 79.5946768,28.5601458 C87.5438489,30.4902344 93.4189262,36.9351458 93.4189262,44.6666667 C93.4189262,53.9194714 85.0561807,61.4166667 74.735141,61.4166667 L21.7977495,61.4166667 C13.1977588,61.4166667 6.22792842,55.1680443 6.22792842,47.4583333 C6.22792842,39.7486224 13.1979534,33.5 21.7977495,33.5 C22.2751591,33.5 22.7222076,33.5872396 23.1875506,33.6254505 C22.3117482,31.8806589 21.7977495,29.9559792 21.7977495,27.9166667 C21.7977495,20.2067812 28.7677745,13.9583333 37.3675705,13.9583333 C40.177534,13.9583333 42.7774994,14.6780599 45.0520557,15.8449766 C47.8803137,9.81445312 54.5247348,5.58333333 62.2792842,5.58333333 L62.2792842,5.58333333 Z M62.2792842,0 C54.3118175,0 46.995364,3.375125 42.3608121,8.90942969 C40.7279271,8.55488802 39.0613724,8.375 37.3675705,8.375 C25.3496149,8.375 15.569821,17.1425781 15.569821,27.9166667 C15.569821,28.1893776 15.5758543,28.4565052 15.5881156,28.7236328 C6.58369883,31.1227214 0,38.6145078 0,47.4583333 C0,58.2324219 9.77979384,67 21.7977495,67 L74.735141,67 C88.4743403,67 99.6468547,56.983849 99.6468547,44.6666667 C99.6468547,36.5261667 94.6536131,29.1706484 86.9660139,25.2776693 C87.1180143,24.3072161 87.1909978,23.3201875 87.1909978,22.3333333 C87.1909978,10.0217344 76.0184835,0 62.2792842,0 L62.2792842,0 Z" id="Shape" fill="#C7DCE9" fill-rule="nonzero"></path>
                </g>
            </g>
            <g id="cloud-2" transform="translate(272.000000, 34.500000) scale(-1, 1) translate(-272.000000, -34.500000) translate(222.000000, 1.000000)">
                <g id="Layer_1">
                    <use id="Combined-Shape" stroke="#527D99" mask="url(#mask-4)" stroke-width="2" fill="#D2E3ED" xlink:href="#path-3"></use>
                    <path d="M62.2792842,5.58333333 C72.6003239,5.58333333 80.9630694,13.0805286 80.9630694,22.3333333 C80.9630694,24.5361328 80.458218,26.6298828 79.5946768,28.5601458 C87.5438489,30.4902344 93.4189262,36.9351458 93.4189262,44.6666667 C93.4189262,53.9194714 85.0561807,61.4166667 74.735141,61.4166667 L21.7977495,61.4166667 C13.1977588,61.4166667 6.22792842,55.1680443 6.22792842,47.4583333 C6.22792842,39.7486224 13.1979534,33.5 21.7977495,33.5 C22.2751591,33.5 22.7222076,33.5872396 23.1875506,33.6254505 C22.3117482,31.8806589 21.7977495,29.9559792 21.7977495,27.9166667 C21.7977495,20.2067812 28.7677745,13.9583333 37.3675705,13.9583333 C40.177534,13.9583333 42.7774994,14.6780599 45.0520557,15.8449766 C47.8803137,9.81445312 54.5247348,5.58333333 62.2792842,5.58333333 L62.2792842,5.58333333 Z M62.2792842,0 C54.3118175,0 46.995364,3.375125 42.3608121,8.90942969 C40.7279271,8.55488802 39.0613724,8.375 37.3675705,8.375 C25.3496149,8.375 15.569821,17.1425781 15.569821,27.9166667 C15.569821,28.1893776 15.5758543,28.4565052 15.5881156,28.7236328 C6.58369883,31.1227214 0,38.6145078 0,47.4583333 C0,58.2324219 9.77979384,67 21.7977495,67 L74.735141,67 C88.4743403,67 99.6468547,56.983849 99.6468547,44.6666667 C99.6468547,36.5261667 94.6536131,29.1706484 86.9660139,25.2776693 C87.1180143,24.3072161 87.1909978,23.3201875 87.1909978,22.3333333 C87.1909978,10.0217344 76.0184835,0 62.2792842,0 L62.2792842,0 Z" id="Shape" fill="#C7DCE9" fill-rule="nonzero"></path>
                </g>
            </g>
            <g id="cloud-2" transform="translate(85.000000, 304.500000) scale(-1, 1) translate(-85.000000, -304.500000) translate(35.000000, 271.000000)">
                <g id="Layer_1">
                    <use id="Combined-Shape" stroke="#527D99" mask="url(#mask-6)" stroke-width="2" fill="#D2E3ED" xlink:href="#path-5"></use>
                    <path d="M62.2792842,5.58333333 C72.6003239,5.58333333 80.9630694,13.0805286 80.9630694,22.3333333 C80.9630694,24.5361328 80.458218,26.6298828 79.5946768,28.5601458 C87.5438489,30.4902344 93.4189262,36.9351458 93.4189262,44.6666667 C93.4189262,53.9194714 85.0561807,61.4166667 74.735141,61.4166667 L21.7977495,61.4166667 C13.1977588,61.4166667 6.22792842,55.1680443 6.22792842,47.4583333 C6.22792842,39.7486224 13.1979534,33.5 21.7977495,33.5 C22.2751591,33.5 22.7222076,33.5872396 23.1875506,33.6254505 C22.3117482,31.8806589 21.7977495,29.9559792 21.7977495,27.9166667 C21.7977495,20.2067812 28.7677745,13.9583333 37.3675705,13.9583333 C40.177534,13.9583333 42.7774994,14.6780599 45.0520557,15.8449766 C47.8803137,9.81445312 54.5247348,5.58333333 62.2792842,5.58333333 L62.2792842,5.58333333 Z M62.2792842,0 C54.3118175,0 46.995364,3.375125 42.3608121,8.90942969 C40.7279271,8.55488802 39.0613724,8.375 37.3675705,8.375 C25.3496149,8.375 15.569821,17.1425781 15.569821,27.9166667 C15.569821,28.1893776 15.5758543,28.4565052 15.5881156,28.7236328 C6.58369883,31.1227214 0,38.6145078 0,47.4583333 C0,58.2324219 9.77979384,67 21.7977495,67 L74.735141,67 C88.4743403,67 99.6468547,56.983849 99.6468547,44.6666667 C99.6468547,36.5261667 94.6536131,29.1706484 86.9660139,25.2776693 C87.1180143,24.3072161 87.1909978,23.3201875 87.1909978,22.3333333 C87.1909978,10.0217344 76.0184835,0 62.2792842,0 L62.2792842,0 Z" id="Shape" fill="#C7DCE9" fill-rule="nonzero"></path>
                </g>
            </g>
            <g id="cloud-2" transform="translate(110.000000, 305.500000) scale(-1, 1) translate(-110.000000, -305.500000) translate(60.000000, 272.000000)" fill="#84A9C0">
                <g id="Layer_1">
                    <use id="Combined-Shape" stroke="#527D99" mask="url(#mask-8)" stroke-width="2" fill-opacity="0.78685462" xlink:href="#path-7"></use>
                    <path d="M62.2792842,5.58333333 C72.6003239,5.58333333 80.9630694,13.0805286 80.9630694,22.3333333 C80.9630694,24.5361328 80.458218,26.6298828 79.5946768,28.5601458 C87.5438489,30.4902344 93.4189262,36.9351458 93.4189262,44.6666667 C93.4189262,53.9194714 85.0561807,61.4166667 74.735141,61.4166667 L21.7977495,61.4166667 C13.1977588,61.4166667 6.22792842,55.1680443 6.22792842,47.4583333 C6.22792842,39.7486224 13.1979534,33.5 21.7977495,33.5 C22.2751591,33.5 22.7222076,33.5872396 23.1875506,33.6254505 C22.3117482,31.8806589 21.7977495,29.9559792 21.7977495,27.9166667 C21.7977495,20.2067812 28.7677745,13.9583333 37.3675705,13.9583333 C40.177534,13.9583333 42.7774994,14.6780599 45.0520557,15.8449766 C47.8803137,9.81445312 54.5247348,5.58333333 62.2792842,5.58333333 L62.2792842,5.58333333 Z M62.2792842,0 C54.3118175,0 46.995364,3.375125 42.3608121,8.90942969 C40.7279271,8.55488802 39.0613724,8.375 37.3675705,8.375 C25.3496149,8.375 15.569821,17.1425781 15.569821,27.9166667 C15.569821,28.1893776 15.5758543,28.4565052 15.5881156,28.7236328 C6.58369883,31.1227214 0,38.6145078 0,47.4583333 C0,58.2324219 9.77979384,67 21.7977495,67 L74.735141,67 C88.4743403,67 99.6468547,56.983849 99.6468547,44.6666667 C99.6468547,36.5261667 94.6536131,29.1706484 86.9660139,25.2776693 C87.1180143,24.3072161 87.1909978,23.3201875 87.1909978,22.3333333 C87.1909978,10.0217344 76.0184835,0 62.2792842,0 L62.2792842,0 Z" id="Shape" fill-rule="nonzero"></path>
                </g>
            </g>
            <g id="cloud-2" transform="translate(135.000000, 33.500000) scale(-1, 1) translate(-135.000000, -33.500000) translate(85.000000, 0.000000)">
                <g id="Layer_1">
                    <use id="Combined-Shape" stroke="#527D99" mask="url(#mask-10)" stroke-width="2" fill="#D2E3ED" xlink:href="#path-9"></use>
                    <path d="M62.2792842,5.58333333 C72.6003239,5.58333333 80.9630694,13.0805286 80.9630694,22.3333333 C80.9630694,24.5361328 80.458218,26.6298828 79.5946768,28.5601458 C87.5438489,30.4902344 93.4189262,36.9351458 93.4189262,44.6666667 C93.4189262,53.9194714 85.0561807,61.4166667 74.735141,61.4166667 L21.7977495,61.4166667 C13.1977588,61.4166667 6.22792842,55.1680443 6.22792842,47.4583333 C6.22792842,39.7486224 13.1979534,33.5 21.7977495,33.5 C22.2751591,33.5 22.7222076,33.5872396 23.1875506,33.6254505 C22.3117482,31.8806589 21.7977495,29.9559792 21.7977495,27.9166667 C21.7977495,20.2067812 28.7677745,13.9583333 37.3675705,13.9583333 C40.177534,13.9583333 42.7774994,14.6780599 45.0520557,15.8449766 C47.8803137,9.81445312 54.5247348,5.58333333 62.2792842,5.58333333 L62.2792842,5.58333333 Z M62.2792842,0 C54.3118175,0 46.995364,3.375125 42.3608121,8.90942969 C40.7279271,8.55488802 39.0613724,8.375 37.3675705,8.375 C25.3496149,8.375 15.569821,17.1425781 15.569821,27.9166667 C15.569821,28.1893776 15.5758543,28.4565052 15.5881156,28.7236328 C6.58369883,31.1227214 0,38.6145078 0,47.4583333 C0,58.2324219 9.77979384,67 21.7977495,67 L74.735141,67 C88.4743403,67 99.6468547,56.983849 99.6468547,44.6666667 C99.6468547,36.5261667 94.6536131,29.1706484 86.9660139,25.2776693 C87.1180143,24.3072161 87.1909978,23.3201875 87.1909978,22.3333333 C87.1909978,10.0217344 76.0184835,0 62.2792842,0 L62.2792842,0 Z" id="Shape" fill="#C7DCE9" fill-rule="nonzero"></path>
                </g>
            </g>
            <g id="cloud-2" transform="translate(222.000000, 305.500000) scale(-1, 1) translate(-222.000000, -305.500000) translate(172.000000, 272.000000)" fill="#84A9C0">
                <g id="Layer_1">
                    <use id="Combined-Shape" stroke="#527D99" mask="url(#mask-12)" stroke-width="2" fill-opacity="0.78685462" xlink:href="#path-11"></use>
                    <path d="M62.2792842,5.58333333 C72.6003239,5.58333333 80.9630694,13.0805286 80.9630694,22.3333333 C80.9630694,24.5361328 80.458218,26.6298828 79.5946768,28.5601458 C87.5438489,30.4902344 93.4189262,36.9351458 93.4189262,44.6666667 C93.4189262,53.9194714 85.0561807,61.4166667 74.735141,61.4166667 L21.7977495,61.4166667 C13.1977588,61.4166667 6.22792842,55.1680443 6.22792842,47.4583333 C6.22792842,39.7486224 13.1979534,33.5 21.7977495,33.5 C22.2751591,33.5 22.7222076,33.5872396 23.1875506,33.6254505 C22.3117482,31.8806589 21.7977495,29.9559792 21.7977495,27.9166667 C21.7977495,20.2067812 28.7677745,13.9583333 37.3675705,13.9583333 C40.177534,13.9583333 42.7774994,14.6780599 45.0520557,15.8449766 C47.8803137,9.81445312 54.5247348,5.58333333 62.2792842,5.58333333 L62.2792842,5.58333333 Z M62.2792842,0 C54.3118175,0 46.995364,3.375125 42.3608121,8.90942969 C40.7279271,8.55488802 39.0613724,8.375 37.3675705,8.375 C25.3496149,8.375 15.569821,17.1425781 15.569821,27.9166667 C15.569821,28.1893776 15.5758543,28.4565052 15.5881156,28.7236328 C6.58369883,31.1227214 0,38.6145078 0,47.4583333 C0,58.2324219 9.77979384,67 21.7977495,67 L74.735141,67 C88.4743403,67 99.6468547,56.983849 99.6468547,44.6666667 C99.6468547,36.5261667 94.6536131,29.1706484 86.9660139,25.2776693 C87.1180143,24.3072161 87.1909978,23.3201875 87.1909978,22.3333333 C87.1909978,10.0217344 76.0184835,0 62.2792842,0 L62.2792842,0 Z" id="Shape" fill-rule="nonzero"></path>
                </g>
            </g>
            <g id="cloud" transform="translate(50.000000, 304.500000) scale(-1, 1) translate(-50.000000, -304.500000) translate(0.000000, 271.000000)">
                <path d="M62.2792842,5.58333333 C72.6003239,5.58333333 80.9630694,13.0805286 80.9630694,22.3333333 C80.9630694,24.5361328 80.458218,26.6298828 79.5946768,28.5601458 C87.5438489,30.4902344 93.4189262,36.9351458 93.4189262,44.6666667 C93.4189262,53.9194714 85.0561807,61.4166667 74.735141,61.4166667 L21.7977495,61.4166667 C13.1977588,61.4166667 6.22792842,55.1680443 6.22792842,47.4583333 C6.22792842,39.7486224 13.1979534,33.5 21.7977495,33.5 C22.2751591,33.5 22.7222076,33.5872396 23.1875506,33.6254505 C22.3117482,31.8806589 21.7977495,29.9559792 21.7977495,27.9166667 C21.7977495,20.2067812 28.7677745,13.9583333 37.3675705,13.9583333 C40.177534,13.9583333 42.7774994,14.6780599 45.0520557,15.8449766 C47.8803137,9.81445312 54.5247348,5.58333333 62.2792842,5.58333333 L62.2792842,5.58333333 Z M62.2792842,0 C54.3118175,0 46.995364,3.375125 42.3608121,8.90942969 C40.7279271,8.55488802 39.0613724,8.375 37.3675705,8.375 C25.3496149,8.375 15.569821,17.1425781 15.569821,27.9166667 C15.569821,28.1893776 15.5758543,28.4565052 15.5881156,28.7236328 C6.58369883,31.1227214 0,38.6145078 0,47.4583333 C0,58.2324219 9.77979384,67 21.7977495,67 L74.735141,67 C88.4743403,67 99.6468547,56.983849 99.6468547,44.6666667 C99.6468547,36.5261667 94.6536131,29.1706484 86.9660139,25.2776693 C87.1180143,24.3072161 87.1909978,23.3201875 87.1909978,22.3333333 C87.1909978,10.0217344 76.0184835,0 62.2792842,0 L62.2792842,0 Z" id="Shape" fill="#517E99" fill-rule="nonzero"></path>
                <use id="Combined-Shape" stroke="#527D99" mask="url(#mask-14)" stroke-width="2" fill-opacity="0.901211504" fill="#527E99" xlink:href="#path-13"></use>
            </g>
            <g id="cloud" transform="translate(110.000000, 272.000000)">
                <path d="M62.2792842,5.58333333 C72.6003239,5.58333333 80.9630694,13.0805286 80.9630694,22.3333333 C80.9630694,24.5361328 80.458218,26.6298828 79.5946768,28.5601458 C87.5438489,30.4902344 93.4189262,36.9351458 93.4189262,44.6666667 C93.4189262,53.9194714 85.0561807,61.4166667 74.735141,61.4166667 L21.7977495,61.4166667 C13.1977588,61.4166667 6.22792842,55.1680443 6.22792842,47.4583333 C6.22792842,39.7486224 13.1979534,33.5 21.7977495,33.5 C22.2751591,33.5 22.7222076,33.5872396 23.1875506,33.6254505 C22.3117482,31.8806589 21.7977495,29.9559792 21.7977495,27.9166667 C21.7977495,20.2067812 28.7677745,13.9583333 37.3675705,13.9583333 C40.177534,13.9583333 42.7774994,14.6780599 45.0520557,15.8449766 C47.8803137,9.81445312 54.5247348,5.58333333 62.2792842,5.58333333 L62.2792842,5.58333333 Z M62.2792842,0 C54.3118175,0 46.995364,3.375125 42.3608121,8.90942969 C40.7279271,8.55488802 39.0613724,8.375 37.3675705,8.375 C25.3496149,8.375 15.569821,17.1425781 15.569821,27.9166667 C15.569821,28.1893776 15.5758543,28.4565052 15.5881156,28.7236328 C6.58369883,31.1227214 0,38.6145078 0,47.4583333 C0,58.2324219 9.77979384,67 21.7977495,67 L74.735141,67 C88.4743403,67 99.6468547,56.983849 99.6468547,44.6666667 C99.6468547,36.5261667 94.6536131,29.1706484 86.9660139,25.2776693 C87.1180143,24.3072161 87.1909978,23.3201875 87.1909978,22.3333333 C87.1909978,10.0217344 76.0184835,0 62.2792842,0 L62.2792842,0 Z" id="Shape" fill="#517E99" fill-rule="nonzero"></path>
                <use id="Combined-Shape" stroke="#527D99" mask="url(#mask-16)" stroke-width="2" fill-opacity="0.901211504" fill="#527E99" xlink:href="#path-15"></use>
            </g>
            <g id="cloud" transform="translate(147.000000, 271.000000)">
                <path d="M62.2792842,5.58333333 C72.6003239,5.58333333 80.9630694,13.0805286 80.9630694,22.3333333 C80.9630694,24.5361328 80.458218,26.6298828 79.5946768,28.5601458 C87.5438489,30.4902344 93.4189262,36.9351458 93.4189262,44.6666667 C93.4189262,53.9194714 85.0561807,61.4166667 74.735141,61.4166667 L21.7977495,61.4166667 C13.1977588,61.4166667 6.22792842,55.1680443 6.22792842,47.4583333 C6.22792842,39.7486224 13.1979534,33.5 21.7977495,33.5 C22.2751591,33.5 22.7222076,33.5872396 23.1875506,33.6254505 C22.3117482,31.8806589 21.7977495,29.9559792 21.7977495,27.9166667 C21.7977495,20.2067812 28.7677745,13.9583333 37.3675705,13.9583333 C40.177534,13.9583333 42.7774994,14.6780599 45.0520557,15.8449766 C47.8803137,9.81445312 54.5247348,5.58333333 62.2792842,5.58333333 L62.2792842,5.58333333 Z M62.2792842,0 C54.3118175,0 46.995364,3.375125 42.3608121,8.90942969 C40.7279271,8.55488802 39.0613724,8.375 37.3675705,8.375 C25.3496149,8.375 15.569821,17.1425781 15.569821,27.9166667 C15.569821,28.1893776 15.5758543,28.4565052 15.5881156,28.7236328 C6.58369883,31.1227214 0,38.6145078 0,47.4583333 C0,58.2324219 9.77979384,67 21.7977495,67 L74.735141,67 C88.4743403,67 99.6468547,56.983849 99.6468547,44.6666667 C99.6468547,36.5261667 94.6536131,29.1706484 86.9660139,25.2776693 C87.1180143,24.3072161 87.1909978,23.3201875 87.1909978,22.3333333 C87.1909978,10.0217344 76.0184835,0 62.2792842,0 L62.2792842,0 Z" id="Shape" fill="#517E99" fill-rule="nonzero"></path>
                <use id="Combined-Shape" stroke="#527D99" mask="url(#mask-18)" stroke-width="2" fill-opacity="0.901211504" fill="#527E99" xlink:href="#path-17"></use>
            </g>
            <g id="cloud-2" transform="translate(337.000000, 305.500000) scale(-1, 1) translate(-337.000000, -305.500000) translate(287.000000, 272.000000)" fill="#84A9C0">
                <g id="Layer_1">
                    <use id="Combined-Shape" stroke="#527D99" mask="url(#mask-20)" stroke-width="2" fill-opacity="0.78685462" xlink:href="#path-19"></use>
                    <path d="M62.2792842,5.58333333 C72.6003239,5.58333333 80.9630694,13.0805286 80.9630694,22.3333333 C80.9630694,24.5361328 80.458218,26.6298828 79.5946768,28.5601458 C87.5438489,30.4902344 93.4189262,36.9351458 93.4189262,44.6666667 C93.4189262,53.9194714 85.0561807,61.4166667 74.735141,61.4166667 L21.7977495,61.4166667 C13.1977588,61.4166667 6.22792842,55.1680443 6.22792842,47.4583333 C6.22792842,39.7486224 13.1979534,33.5 21.7977495,33.5 C22.2751591,33.5 22.7222076,33.5872396 23.1875506,33.6254505 C22.3117482,31.8806589 21.7977495,29.9559792 21.7977495,27.9166667 C21.7977495,20.2067812 28.7677745,13.9583333 37.3675705,13.9583333 C40.177534,13.9583333 42.7774994,14.6780599 45.0520557,15.8449766 C47.8803137,9.81445312 54.5247348,5.58333333 62.2792842,5.58333333 L62.2792842,5.58333333 Z M62.2792842,0 C54.3118175,0 46.995364,3.375125 42.3608121,8.90942969 C40.7279271,8.55488802 39.0613724,8.375 37.3675705,8.375 C25.3496149,8.375 15.569821,17.1425781 15.569821,27.9166667 C15.569821,28.1893776 15.5758543,28.4565052 15.5881156,28.7236328 C6.58369883,31.1227214 0,38.6145078 0,47.4583333 C0,58.2324219 9.77979384,67 21.7977495,67 L74.735141,67 C88.4743403,67 99.6468547,56.983849 99.6468547,44.6666667 C99.6468547,36.5261667 94.6536131,29.1706484 86.9660139,25.2776693 C87.1180143,24.3072161 87.1909978,23.3201875 87.1909978,22.3333333 C87.1909978,10.0217344 76.0184835,0 62.2792842,0 L62.2792842,0 Z" id="Shape" fill-rule="nonzero"></path>
                </g>
            </g>
            <g id="cloud-2" transform="translate(460.000000, 304.500000) scale(-1, 1) translate(-460.000000, -304.500000) translate(410.000000, 271.000000)" fill="#84A9C0">
                <g id="Layer_1">
                    <use id="Combined-Shape" stroke="#527D99" mask="url(#mask-22)" stroke-width="2" fill-opacity="0.78685462" xlink:href="#path-21"></use>
                    <path d="M62.2792842,5.58333333 C72.6003239,5.58333333 80.9630694,13.0805286 80.9630694,22.3333333 C80.9630694,24.5361328 80.458218,26.6298828 79.5946768,28.5601458 C87.5438489,30.4902344 93.4189262,36.9351458 93.4189262,44.6666667 C93.4189262,53.9194714 85.0561807,61.4166667 74.735141,61.4166667 L21.7977495,61.4166667 C13.1977588,61.4166667 6.22792842,55.1680443 6.22792842,47.4583333 C6.22792842,39.7486224 13.1979534,33.5 21.7977495,33.5 C22.2751591,33.5 22.7222076,33.5872396 23.1875506,33.6254505 C22.3117482,31.8806589 21.7977495,29.9559792 21.7977495,27.9166667 C21.7977495,20.2067812 28.7677745,13.9583333 37.3675705,13.9583333 C40.177534,13.9583333 42.7774994,14.6780599 45.0520557,15.8449766 C47.8803137,9.81445312 54.5247348,5.58333333 62.2792842,5.58333333 L62.2792842,5.58333333 Z M62.2792842,0 C54.3118175,0 46.995364,3.375125 42.3608121,8.90942969 C40.7279271,8.55488802 39.0613724,8.375 37.3675705,8.375 C25.3496149,8.375 15.569821,17.1425781 15.569821,27.9166667 C15.569821,28.1893776 15.5758543,28.4565052 15.5881156,28.7236328 C6.58369883,31.1227214 0,38.6145078 0,47.4583333 C0,58.2324219 9.77979384,67 21.7977495,67 L74.735141,67 C88.4743403,67 99.6468547,56.983849 99.6468547,44.6666667 C99.6468547,36.5261667 94.6536131,29.1706484 86.9660139,25.2776693 C87.1180143,24.3072161 87.1909978,23.3201875 87.1909978,22.3333333 C87.1909978,10.0217344 76.0184835,0 62.2792842,0 L62.2792842,0 Z" id="Shape" fill-rule="nonzero"></path>
                </g>
            </g>
            <g id="cloud-2" transform="translate(422.000000, 304.500000) scale(-1, 1) translate(-422.000000, -304.500000) translate(372.000000, 271.000000)" fill="#84A9C0">
                <g id="Layer_1">
                    <use id="Combined-Shape" stroke="#527D99" mask="url(#mask-24)" stroke-width="2" fill-opacity="0.78685462" xlink:href="#path-23"></use>
                    <path d="M62.2792842,5.58333333 C72.6003239,5.58333333 80.9630694,13.0805286 80.9630694,22.3333333 C80.9630694,24.5361328 80.458218,26.6298828 79.5946768,28.5601458 C87.5438489,30.4902344 93.4189262,36.9351458 93.4189262,44.6666667 C93.4189262,53.9194714 85.0561807,61.4166667 74.735141,61.4166667 L21.7977495,61.4166667 C13.1977588,61.4166667 6.22792842,55.1680443 6.22792842,47.4583333 C6.22792842,39.7486224 13.1979534,33.5 21.7977495,33.5 C22.2751591,33.5 22.7222076,33.5872396 23.1875506,33.6254505 C22.3117482,31.8806589 21.7977495,29.9559792 21.7977495,27.9166667 C21.7977495,20.2067812 28.7677745,13.9583333 37.3675705,13.9583333 C40.177534,13.9583333 42.7774994,14.6780599 45.0520557,15.8449766 C47.8803137,9.81445312 54.5247348,5.58333333 62.2792842,5.58333333 L62.2792842,5.58333333 Z M62.2792842,0 C54.3118175,0 46.995364,3.375125 42.3608121,8.90942969 C40.7279271,8.55488802 39.0613724,8.375 37.3675705,8.375 C25.3496149,8.375 15.569821,17.1425781 15.569821,27.9166667 C15.569821,28.1893776 15.5758543,28.4565052 15.5881156,28.7236328 C6.58369883,31.1227214 0,38.6145078 0,47.4583333 C0,58.2324219 9.77979384,67 21.7977495,67 L74.735141,67 C88.4743403,67 99.6468547,56.983849 99.6468547,44.6666667 C99.6468547,36.5261667 94.6536131,29.1706484 86.9660139,25.2776693 C87.1180143,24.3072161 87.1909978,23.3201875 87.1909978,22.3333333 C87.1909978,10.0217344 76.0184835,0 62.2792842,0 L62.2792842,0 Z" id="Shape" fill-rule="nonzero"></path>
                </g>
            </g>
            <g id="cloud" transform="translate(310.000000, 271.000000)">
                <path d="M62.2792842,5.58333333 C72.6003239,5.58333333 80.9630694,13.0805286 80.9630694,22.3333333 C80.9630694,24.5361328 80.458218,26.6298828 79.5946768,28.5601458 C87.5438489,30.4902344 93.4189262,36.9351458 93.4189262,44.6666667 C93.4189262,53.9194714 85.0561807,61.4166667 74.735141,61.4166667 L21.7977495,61.4166667 C13.1977588,61.4166667 6.22792842,55.1680443 6.22792842,47.4583333 C6.22792842,39.7486224 13.1979534,33.5 21.7977495,33.5 C22.2751591,33.5 22.7222076,33.5872396 23.1875506,33.6254505 C22.3117482,31.8806589 21.7977495,29.9559792 21.7977495,27.9166667 C21.7977495,20.2067812 28.7677745,13.9583333 37.3675705,13.9583333 C40.177534,13.9583333 42.7774994,14.6780599 45.0520557,15.8449766 C47.8803137,9.81445312 54.5247348,5.58333333 62.2792842,5.58333333 L62.2792842,5.58333333 Z M62.2792842,0 C54.3118175,0 46.995364,3.375125 42.3608121,8.90942969 C40.7279271,8.55488802 39.0613724,8.375 37.3675705,8.375 C25.3496149,8.375 15.569821,17.1425781 15.569821,27.9166667 C15.569821,28.1893776 15.5758543,28.4565052 15.5881156,28.7236328 C6.58369883,31.1227214 0,38.6145078 0,47.4583333 C0,58.2324219 9.77979384,67 21.7977495,67 L74.735141,67 C88.4743403,67 99.6468547,56.983849 99.6468547,44.6666667 C99.6468547,36.5261667 94.6536131,29.1706484 86.9660139,25.2776693 C87.1180143,24.3072161 87.1909978,23.3201875 87.1909978,22.3333333 C87.1909978,10.0217344 76.0184835,0 62.2792842,0 L62.2792842,0 Z" id="Shape" fill="#517E99" fill-rule="nonzero"></path>
                <use id="Combined-Shape" stroke="#527D99" mask="url(#mask-26)" stroke-width="2" fill-opacity="0.901211504" fill="#527E99" xlink:href="#path-25"></use>
            </g>
            <g id="cloud-2" transform="translate(106.000000, 34.500000) scale(-1, 1) translate(-106.000000, -34.500000) translate(56.000000, 1.000000)" fill="#84A9C0">
                <g id="Layer_1">
                    <use id="Combined-Shape" stroke="#527D99" mask="url(#mask-28)" stroke-width="2" fill-opacity="0.78685462" xlink:href="#path-27"></use>
                    <path d="M62.2792842,5.58333333 C72.6003239,5.58333333 80.9630694,13.0805286 80.9630694,22.3333333 C80.9630694,24.5361328 80.458218,26.6298828 79.5946768,28.5601458 C87.5438489,30.4902344 93.4189262,36.9351458 93.4189262,44.6666667 C93.4189262,53.9194714 85.0561807,61.4166667 74.735141,61.4166667 L21.7977495,61.4166667 C13.1977588,61.4166667 6.22792842,55.1680443 6.22792842,47.4583333 C6.22792842,39.7486224 13.1979534,33.5 21.7977495,33.5 C22.2751591,33.5 22.7222076,33.5872396 23.1875506,33.6254505 C22.3117482,31.8806589 21.7977495,29.9559792 21.7977495,27.9166667 C21.7977495,20.2067812 28.7677745,13.9583333 37.3675705,13.9583333 C40.177534,13.9583333 42.7774994,14.6780599 45.0520557,15.8449766 C47.8803137,9.81445312 54.5247348,5.58333333 62.2792842,5.58333333 L62.2792842,5.58333333 Z M62.2792842,0 C54.3118175,0 46.995364,3.375125 42.3608121,8.90942969 C40.7279271,8.55488802 39.0613724,8.375 37.3675705,8.375 C25.3496149,8.375 15.569821,17.1425781 15.569821,27.9166667 C15.569821,28.1893776 15.5758543,28.4565052 15.5881156,28.7236328 C6.58369883,31.1227214 0,38.6145078 0,47.4583333 C0,58.2324219 9.77979384,67 21.7977495,67 L74.735141,67 C88.4743403,67 99.6468547,56.983849 99.6468547,44.6666667 C99.6468547,36.5261667 94.6536131,29.1706484 86.9660139,25.2776693 C87.1180143,24.3072161 87.1909978,23.3201875 87.1909978,22.3333333 C87.1909978,10.0217344 76.0184835,0 62.2792842,0 L62.2792842,0 Z" id="Shape" fill-rule="nonzero"></path>
                </g>
            </g>
            <g id="cloud-2" transform="translate(218.000000, 34.500000) scale(-1, 1) translate(-218.000000, -34.500000) translate(168.000000, 1.000000)" fill="#84A9C0">
                <g id="Layer_1">
                    <use id="Combined-Shape" stroke="#527D99" mask="url(#mask-30)" stroke-width="2" fill-opacity="0.78685462" xlink:href="#path-29"></use>
                    <path d="M62.2792842,5.58333333 C72.6003239,5.58333333 80.9630694,13.0805286 80.9630694,22.3333333 C80.9630694,24.5361328 80.458218,26.6298828 79.5946768,28.5601458 C87.5438489,30.4902344 93.4189262,36.9351458 93.4189262,44.6666667 C93.4189262,53.9194714 85.0561807,61.4166667 74.735141,61.4166667 L21.7977495,61.4166667 C13.1977588,61.4166667 6.22792842,55.1680443 6.22792842,47.4583333 C6.22792842,39.7486224 13.1979534,33.5 21.7977495,33.5 C22.2751591,33.5 22.7222076,33.5872396 23.1875506,33.6254505 C22.3117482,31.8806589 21.7977495,29.9559792 21.7977495,27.9166667 C21.7977495,20.2067812 28.7677745,13.9583333 37.3675705,13.9583333 C40.177534,13.9583333 42.7774994,14.6780599 45.0520557,15.8449766 C47.8803137,9.81445312 54.5247348,5.58333333 62.2792842,5.58333333 L62.2792842,5.58333333 Z M62.2792842,0 C54.3118175,0 46.995364,3.375125 42.3608121,8.90942969 C40.7279271,8.55488802 39.0613724,8.375 37.3675705,8.375 C25.3496149,8.375 15.569821,17.1425781 15.569821,27.9166667 C15.569821,28.1893776 15.5758543,28.4565052 15.5881156,28.7236328 C6.58369883,31.1227214 0,38.6145078 0,47.4583333 C0,58.2324219 9.77979384,67 21.7977495,67 L74.735141,67 C88.4743403,67 99.6468547,56.983849 99.6468547,44.6666667 C99.6468547,36.5261667 94.6536131,29.1706484 86.9660139,25.2776693 C87.1180143,24.3072161 87.1909978,23.3201875 87.1909978,22.3333333 C87.1909978,10.0217344 76.0184835,0 62.2792842,0 L62.2792842,0 Z" id="Shape" fill-rule="nonzero"></path>
                </g>
            </g>
            <g id="cloud" transform="translate(0.000000, 1.000000)">
                <path d="M62.2792842,5.58333333 C72.6003239,5.58333333 80.9630694,13.0805286 80.9630694,22.3333333 C80.9630694,24.5361328 80.458218,26.6298828 79.5946768,28.5601458 C87.5438489,30.4902344 93.4189262,36.9351458 93.4189262,44.6666667 C93.4189262,53.9194714 85.0561807,61.4166667 74.735141,61.4166667 L21.7977495,61.4166667 C13.1977588,61.4166667 6.22792842,55.1680443 6.22792842,47.4583333 C6.22792842,39.7486224 13.1979534,33.5 21.7977495,33.5 C22.2751591,33.5 22.7222076,33.5872396 23.1875506,33.6254505 C22.3117482,31.8806589 21.7977495,29.9559792 21.7977495,27.9166667 C21.7977495,20.2067812 28.7677745,13.9583333 37.3675705,13.9583333 C40.177534,13.9583333 42.7774994,14.6780599 45.0520557,15.8449766 C47.8803137,9.81445312 54.5247348,5.58333333 62.2792842,5.58333333 L62.2792842,5.58333333 Z M62.2792842,0 C54.3118175,0 46.995364,3.375125 42.3608121,8.90942969 C40.7279271,8.55488802 39.0613724,8.375 37.3675705,8.375 C25.3496149,8.375 15.569821,17.1425781 15.569821,27.9166667 C15.569821,28.1893776 15.5758543,28.4565052 15.5881156,28.7236328 C6.58369883,31.1227214 0,38.6145078 0,47.4583333 C0,58.2324219 9.77979384,67 21.7977495,67 L74.735141,67 C88.4743403,67 99.6468547,56.983849 99.6468547,44.6666667 C99.6468547,36.5261667 94.6536131,29.1706484 86.9660139,25.2776693 C87.1180143,24.3072161 87.1909978,23.3201875 87.1909978,22.3333333 C87.1909978,10.0217344 76.0184835,0 62.2792842,0 L62.2792842,0 Z" id="Shape" fill="#517E99" fill-rule="nonzero"></path>
                <use id="Combined-Shape" stroke="#527D99" mask="url(#mask-32)" stroke-width="2" fill-opacity="0.901211504" fill="#527E99" xlink:href="#path-31"></use>
            </g>
            <g id="cloud" transform="translate(106.000000, 1.000000)">
                <path d="M62.2792842,5.58333333 C72.6003239,5.58333333 80.9630694,13.0805286 80.9630694,22.3333333 C80.9630694,24.5361328 80.458218,26.6298828 79.5946768,28.5601458 C87.5438489,30.4902344 93.4189262,36.9351458 93.4189262,44.6666667 C93.4189262,53.9194714 85.0561807,61.4166667 74.735141,61.4166667 L21.7977495,61.4166667 C13.1977588,61.4166667 6.22792842,55.1680443 6.22792842,47.4583333 C6.22792842,39.7486224 13.1979534,33.5 21.7977495,33.5 C22.2751591,33.5 22.7222076,33.5872396 23.1875506,33.6254505 C22.3117482,31.8806589 21.7977495,29.9559792 21.7977495,27.9166667 C21.7977495,20.2067812 28.7677745,13.9583333 37.3675705,13.9583333 C40.177534,13.9583333 42.7774994,14.6780599 45.0520557,15.8449766 C47.8803137,9.81445312 54.5247348,5.58333333 62.2792842,5.58333333 L62.2792842,5.58333333 Z M62.2792842,0 C54.3118175,0 46.995364,3.375125 42.3608121,8.90942969 C40.7279271,8.55488802 39.0613724,8.375 37.3675705,8.375 C25.3496149,8.375 15.569821,17.1425781 15.569821,27.9166667 C15.569821,28.1893776 15.5758543,28.4565052 15.5881156,28.7236328 C6.58369883,31.1227214 0,38.6145078 0,47.4583333 C0,58.2324219 9.77979384,67 21.7977495,67 L74.735141,67 C88.4743403,67 99.6468547,56.983849 99.6468547,44.6666667 C99.6468547,36.5261667 94.6536131,29.1706484 86.9660139,25.2776693 C87.1180143,24.3072161 87.1909978,23.3201875 87.1909978,22.3333333 C87.1909978,10.0217344 76.0184835,0 62.2792842,0 L62.2792842,0 Z" id="Shape" fill="#517E99" fill-rule="nonzero"></path>
                <use id="Combined-Shape" stroke="#527D99" mask="url(#mask-34)" stroke-width="2" fill-opacity="0.901211504" fill="#527E99" xlink:href="#path-33"></use>
            </g>
            <g id="cloud" transform="translate(147.000000, 1.000000)">
                <path d="M62.2792842,5.58333333 C72.6003239,5.58333333 80.9630694,13.0805286 80.9630694,22.3333333 C80.9630694,24.5361328 80.458218,26.6298828 79.5946768,28.5601458 C87.5438489,30.4902344 93.4189262,36.9351458 93.4189262,44.6666667 C93.4189262,53.9194714 85.0561807,61.4166667 74.735141,61.4166667 L21.7977495,61.4166667 C13.1977588,61.4166667 6.22792842,55.1680443 6.22792842,47.4583333 C6.22792842,39.7486224 13.1979534,33.5 21.7977495,33.5 C22.2751591,33.5 22.7222076,33.5872396 23.1875506,33.6254505 C22.3117482,31.8806589 21.7977495,29.9559792 21.7977495,27.9166667 C21.7977495,20.2067812 28.7677745,13.9583333 37.3675705,13.9583333 C40.177534,13.9583333 42.7774994,14.6780599 45.0520557,15.8449766 C47.8803137,9.81445312 54.5247348,5.58333333 62.2792842,5.58333333 L62.2792842,5.58333333 Z M62.2792842,0 C54.3118175,0 46.995364,3.375125 42.3608121,8.90942969 C40.7279271,8.55488802 39.0613724,8.375 37.3675705,8.375 C25.3496149,8.375 15.569821,17.1425781 15.569821,27.9166667 C15.569821,28.1893776 15.5758543,28.4565052 15.5881156,28.7236328 C6.58369883,31.1227214 0,38.6145078 0,47.4583333 C0,58.2324219 9.77979384,67 21.7977495,67 L74.735141,67 C88.4743403,67 99.6468547,56.983849 99.6468547,44.6666667 C99.6468547,36.5261667 94.6536131,29.1706484 86.9660139,25.2776693 C87.1180143,24.3072161 87.1909978,23.3201875 87.1909978,22.3333333 C87.1909978,10.0217344 76.0184835,0 62.2792842,0 L62.2792842,0 Z" id="Shape" fill="#517E99" fill-rule="nonzero"></path>
                <use id="Combined-Shape" stroke="#527D99" mask="url(#mask-36)" stroke-width="2" fill-opacity="0.901211504" fill="#527E99" xlink:href="#path-35"></use>
            </g>
            <g id="cloud-2" transform="translate(333.000000, 34.500000) scale(-1, 1) translate(-333.000000, -34.500000) translate(283.000000, 1.000000)" fill="#84A9C0">
                <g id="Layer_1">
                    <use id="Combined-Shape" stroke="#527D99" mask="url(#mask-38)" stroke-width="2" fill-opacity="0.78685462" xlink:href="#path-37"></use>
                    <path d="M62.2792842,5.58333333 C72.6003239,5.58333333 80.9630694,13.0805286 80.9630694,22.3333333 C80.9630694,24.5361328 80.458218,26.6298828 79.5946768,28.5601458 C87.5438489,30.4902344 93.4189262,36.9351458 93.4189262,44.6666667 C93.4189262,53.9194714 85.0561807,61.4166667 74.735141,61.4166667 L21.7977495,61.4166667 C13.1977588,61.4166667 6.22792842,55.1680443 6.22792842,47.4583333 C6.22792842,39.7486224 13.1979534,33.5 21.7977495,33.5 C22.2751591,33.5 22.7222076,33.5872396 23.1875506,33.6254505 C22.3117482,31.8806589 21.7977495,29.9559792 21.7977495,27.9166667 C21.7977495,20.2067812 28.7677745,13.9583333 37.3675705,13.9583333 C40.177534,13.9583333 42.7774994,14.6780599 45.0520557,15.8449766 C47.8803137,9.81445312 54.5247348,5.58333333 62.2792842,5.58333333 L62.2792842,5.58333333 Z M62.2792842,0 C54.3118175,0 46.995364,3.375125 42.3608121,8.90942969 C40.7279271,8.55488802 39.0613724,8.375 37.3675705,8.375 C25.3496149,8.375 15.569821,17.1425781 15.569821,27.9166667 C15.569821,28.1893776 15.5758543,28.4565052 15.5881156,28.7236328 C6.58369883,31.1227214 0,38.6145078 0,47.4583333 C0,58.2324219 9.77979384,67 21.7977495,67 L74.735141,67 C88.4743403,67 99.6468547,56.983849 99.6468547,44.6666667 C99.6468547,36.5261667 94.6536131,29.1706484 86.9660139,25.2776693 C87.1180143,24.3072161 87.1909978,23.3201875 87.1909978,22.3333333 C87.1909978,10.0217344 76.0184835,0 62.2792842,0 L62.2792842,0 Z" id="Shape" fill-rule="nonzero"></path>
                </g>
            </g>
            <g id="cloud-2" transform="translate(463.000000, 33.500000) scale(-1, 1) translate(-463.000000, -33.500000) translate(413.000000, 0.000000)" fill="#C7DCE9">
                <g id="Layer_1">
                    <use id="Combined-Shape" stroke="#527D99" mask="url(#mask-40)" stroke-width="2" fill-opacity="0.712324502" xlink:href="#path-39"></use>
                    <path d="M62.2792842,5.58333333 C72.6003239,5.58333333 80.9630694,13.0805286 80.9630694,22.3333333 C80.9630694,24.5361328 80.458218,26.6298828 79.5946768,28.5601458 C87.5438489,30.4902344 93.4189262,36.9351458 93.4189262,44.6666667 C93.4189262,53.9194714 85.0561807,61.4166667 74.735141,61.4166667 L21.7977495,61.4166667 C13.1977588,61.4166667 6.22792842,55.1680443 6.22792842,47.4583333 C6.22792842,39.7486224 13.1979534,33.5 21.7977495,33.5 C22.2751591,33.5 22.7222076,33.5872396 23.1875506,33.6254505 C22.3117482,31.8806589 21.7977495,29.9559792 21.7977495,27.9166667 C21.7977495,20.2067812 28.7677745,13.9583333 37.3675705,13.9583333 C40.177534,13.9583333 42.7774994,14.6780599 45.0520557,15.8449766 C47.8803137,9.81445312 54.5247348,5.58333333 62.2792842,5.58333333 L62.2792842,5.58333333 Z M62.2792842,0 C54.3118175,0 46.995364,3.375125 42.3608121,8.90942969 C40.7279271,8.55488802 39.0613724,8.375 37.3675705,8.375 C25.3496149,8.375 15.569821,17.1425781 15.569821,27.9166667 C15.569821,28.1893776 15.5758543,28.4565052 15.5881156,28.7236328 C6.58369883,31.1227214 0,38.6145078 0,47.4583333 C0,58.2324219 9.77979384,67 21.7977495,67 L74.735141,67 C88.4743403,67 99.6468547,56.983849 99.6468547,44.6666667 C99.6468547,36.5261667 94.6536131,29.1706484 86.9660139,25.2776693 C87.1180143,24.3072161 87.1909978,23.3201875 87.1909978,22.3333333 C87.1909978,10.0217344 76.0184835,0 62.2792842,0 L62.2792842,0 Z" id="Shape" fill-rule="nonzero"></path>
                </g>
            </g>
            <g id="cloud-2" transform="translate(418.000000, 33.500000) scale(-1, 1) translate(-418.000000, -33.500000) translate(368.000000, 0.000000)" fill="#84A9C0">
                <g id="Layer_1">
                    <use id="Combined-Shape" stroke="#527D99" mask="url(#mask-42)" stroke-width="2" fill-opacity="0.78685462" xlink:href="#path-41"></use>
                    <path d="M62.2792842,5.58333333 C72.6003239,5.58333333 80.9630694,13.0805286 80.9630694,22.3333333 C80.9630694,24.5361328 80.458218,26.6298828 79.5946768,28.5601458 C87.5438489,30.4902344 93.4189262,36.9351458 93.4189262,44.6666667 C93.4189262,53.9194714 85.0561807,61.4166667 74.735141,61.4166667 L21.7977495,61.4166667 C13.1977588,61.4166667 6.22792842,55.1680443 6.22792842,47.4583333 C6.22792842,39.7486224 13.1979534,33.5 21.7977495,33.5 C22.2751591,33.5 22.7222076,33.5872396 23.1875506,33.6254505 C22.3117482,31.8806589 21.7977495,29.9559792 21.7977495,27.9166667 C21.7977495,20.2067812 28.7677745,13.9583333 37.3675705,13.9583333 C40.177534,13.9583333 42.7774994,14.6780599 45.0520557,15.8449766 C47.8803137,9.81445312 54.5247348,5.58333333 62.2792842,5.58333333 L62.2792842,5.58333333 Z M62.2792842,0 C54.3118175,0 46.995364,3.375125 42.3608121,8.90942969 C40.7279271,8.55488802 39.0613724,8.375 37.3675705,8.375 C25.3496149,8.375 15.569821,17.1425781 15.569821,27.9166667 C15.569821,28.1893776 15.5758543,28.4565052 15.5881156,28.7236328 C6.58369883,31.1227214 0,38.6145078 0,47.4583333 C0,58.2324219 9.77979384,67 21.7977495,67 L74.735141,67 C88.4743403,67 99.6468547,56.983849 99.6468547,44.6666667 C99.6468547,36.5261667 94.6536131,29.1706484 86.9660139,25.2776693 C87.1180143,24.3072161 87.1909978,23.3201875 87.1909978,22.3333333 C87.1909978,10.0217344 76.0184835,0 62.2792842,0 L62.2792842,0 Z" id="Shape" fill-rule="nonzero"></path>
                </g>
            </g>
            <g id="cloud" transform="translate(356.000000, 33.500000) scale(-1, 1) translate(-356.000000, -33.500000) translate(306.000000, 0.000000)">
                <path d="M62.2792842,5.58333333 C72.6003239,5.58333333 80.9630694,13.0805286 80.9630694,22.3333333 C80.9630694,24.5361328 80.458218,26.6298828 79.5946768,28.5601458 C87.5438489,30.4902344 93.4189262,36.9351458 93.4189262,44.6666667 C93.4189262,53.9194714 85.0561807,61.4166667 74.735141,61.4166667 L21.7977495,61.4166667 C13.1977588,61.4166667 6.22792842,55.1680443 6.22792842,47.4583333 C6.22792842,39.7486224 13.1979534,33.5 21.7977495,33.5 C22.2751591,33.5 22.7222076,33.5872396 23.1875506,33.6254505 C22.3117482,31.8806589 21.7977495,29.9559792 21.7977495,27.9166667 C21.7977495,20.2067812 28.7677745,13.9583333 37.3675705,13.9583333 C40.177534,13.9583333 42.7774994,14.6780599 45.0520557,15.8449766 C47.8803137,9.81445312 54.5247348,5.58333333 62.2792842,5.58333333 L62.2792842,5.58333333 Z M62.2792842,0 C54.3118175,0 46.995364,3.375125 42.3608121,8.90942969 C40.7279271,8.55488802 39.0613724,8.375 37.3675705,8.375 C25.3496149,8.375 15.569821,17.1425781 15.569821,27.9166667 C15.569821,28.1893776 15.5758543,28.4565052 15.5881156,28.7236328 C6.58369883,31.1227214 0,38.6145078 0,47.4583333 C0,58.2324219 9.77979384,67 21.7977495,67 L74.735141,67 C88.4743403,67 99.6468547,56.983849 99.6468547,44.6666667 C99.6468547,36.5261667 94.6536131,29.1706484 86.9660139,25.2776693 C87.1180143,24.3072161 87.1909978,23.3201875 87.1909978,22.3333333 C87.1909978,10.0217344 76.0184835,0 62.2792842,0 L62.2792842,0 Z" id="Shape" fill="#517E99" fill-rule="nonzero"></path>
                <use id="Combined-Shape" stroke="#527D99" mask="url(#mask-44)" stroke-width="2" fill-opacity="0.901211504" fill="#527E99" xlink:href="#path-43"></use>
            </g>
        </g>
    </g>
</svg>