<?xml version="1.0" encoding="UTF-8" standalone="no"?>
<!-- Created with Inkscape (http://www.inkscape.org/) -->

<svg
   xmlns:dc="http://purl.org/dc/elements/1.1/"
   xmlns:cc="http://creativecommons.org/ns#"
   xmlns:rdf="http://www.w3.org/1999/02/22-rdf-syntax-ns#"
   xmlns:svg="http://www.w3.org/2000/svg"
   xmlns="http://www.w3.org/2000/svg"
   xmlns:sodipodi="http://sodipodi.sourceforge.net/DTD/sodipodi-0.dtd"
   xmlns:inkscape="http://www.inkscape.org/namespaces/inkscape"
   width="200"
   height="200"
   viewBox="0 0 52.916665 52.916668"
   version="1.1"
   id="svg8"
   inkscape:export-filename="C:\Users\Matthew\Desktop\greenmachine.png"
   inkscape:export-xdpi="96"
   inkscape:export-ydpi="96"
   sodipodi:docname="ceiling.svg"
   inkscape:version="0.92.0 r15299">
  <defs
     id="defs2">
    <inkscape:path-effect
       fuse_tolerance="0"
       vertical_pattern="false"
       prop_units="false"
       tang_offset="0"
       normal_offset="0"
       spacing="0"
       scale_y_rel="false"
       prop_scale="0.26458333"
       copytype="single_stretched"
       pattern="M 0,5 C 0,2.24 2.24,0 5,0 7.76,0 10,2.24 10,5 10,7.76 7.76,10 5,10 2.24,10 0,7.76 0,5 Z"
       is_visible="true"
       id="path-effect11718"
       effect="skeletal" />
    <inkscape:path-effect
       effect="skeletal"
       id="path-effect11714"
       is_visible="true"
       pattern="M 0,5 C 0,2.24 2.24,0 5,0 7.76,0 10,2.24 10,5 10,7.76 7.76,10 5,10 2.24,10 0,7.76 0,5 Z"
       copytype="single_stretched"
       prop_scale="0.26458333"
       scale_y_rel="false"
       spacing="0"
       normal_offset="0"
       tang_offset="0"
       prop_units="false"
       vertical_pattern="false"
       fuse_tolerance="0" />
    <inkscape:path-effect
       effect="skeletal"
       id="path-effect11378"
       is_visible="true"
       pattern="m -58.108356,-19.44412 c 0,-2.76 2.24,-5 5,-5 2.76,0 5,2.24 5,5 0,2.76 -2.24,5 -5,5 -2.76,0 -5,-2.24 -5,-5 z"
       copytype="single_stretched"
       prop_scale="0.26458333"
       scale_y_rel="false"
       spacing="0"
       normal_offset="0"
       tang_offset="0"
       prop_units="false"
       vertical_pattern="false"
       fuse_tolerance="0" />
    <inkscape:path-effect
       effect="skeletal"
       id="path-effect11370"
       is_visible="true"
       pattern="m -37.660642,-16.975495 c 0,-2.76 2.24,-5 5,-5 2.76,0 5,2.24 5,5 0,2.76 -2.24,5 -5,5 -2.76,0 -5,-2.24 -5,-5 z"
       copytype="single_stretched"
       prop_scale="0.26458333"
       scale_y_rel="false"
       spacing="0"
       normal_offset="0"
       tang_offset="0"
       prop_units="false"
       vertical_pattern="false"
       fuse_tolerance="0" />
    <inkscape:path-effect
       effect="skeletal"
       id="path-effect11366"
       is_visible="true"
       pattern="m -73.225585,-17.209287 c 0,-2.76 2.24,-5 5,-5 2.76,0 5,2.24 5,5 0,2.76 -2.24,5 -5,5 -2.76,0 -5,-2.24 -5,-5 z"
       copytype="single_stretched"
       prop_scale="0.26458333"
       scale_y_rel="false"
       spacing="0"
       normal_offset="0"
       tang_offset="0"
       prop_units="false"
       vertical_pattern="false"
       fuse_tolerance="0" />
    <inkscape:path-effect
       effect="skeletal"
       id="path-effect11358"
       is_visible="true"
       pattern="m -49.689125,-21.858346 c 0,-2.76 2.24,-5 5,-5 2.76,0 5,2.24 5,5 0,2.76 -2.24,5 -5,5 -2.76,0 -5,-2.24 -5,-5 z"
       copytype="single_stretched"
       prop_scale="0.26458333"
       scale_y_rel="false"
       spacing="0"
       normal_offset="0"
       tang_offset="0"
       prop_units="false"
       vertical_pattern="false"
       fuse_tolerance="0" />
    <inkscape:path-effect
       effect="skeletal"
       id="path-effect8527"
       is_visible="true"
       pattern="m 16.704345,7.271791 c 0,-2.76 2.240001,-5 5.000001,-5 2.76,0 5,2.24 5,5 0,2.76 -2.24,5 -5,5 -2.76,0 -5.000001,-2.24 -5.000001,-5 z"
       copytype="single_stretched"
       prop_scale="0.64331231"
       scale_y_rel="false"
       spacing="0"
       normal_offset="0"
       tang_offset="0"
       prop_units="false"
       vertical_pattern="false"
       fuse_tolerance="0" />
    <inkscape:path-effect
       effect="skeletal"
       id="path-effect4589"
       is_visible="true"
       pattern="m -69.356442,-12.506154 c 0,-2.76 2.24,-5 5,-5 2.76,0 5,2.24 5,5 0,2.7599999 -2.24,4.9999999 -5,4.9999999 -2.76,0 -5,-2.24 -5,-4.9999999 z"
       copytype="single_stretched"
       prop_scale="0.26458333"
       scale_y_rel="false"
       spacing="0"
       normal_offset="0"
       tang_offset="0"
       prop_units="false"
       vertical_pattern="false"
       fuse_tolerance="0" />
    <inkscape:path-effect
       effect="skeletal"
       id="path-effect4585"
       is_visible="true"
       pattern="m -69.356442,-12.506154 c 0,-2.76 2.24,-5 5,-5 2.76,0 5,2.24 5,5 0,2.7599999 -2.24,4.9999999 -5,4.9999999 -2.76,0 -5,-2.24 -5,-4.9999999 z"
       copytype="single_stretched"
       prop_scale="0.26458333"
       scale_y_rel="false"
       spacing="0"
       normal_offset="0"
       tang_offset="0"
       prop_units="false"
       vertical_pattern="false"
       fuse_tolerance="0" />
    <inkscape:path-effect
       effect="skeletal"
       id="path-effect4697"
       is_visible="true"
       pattern="m -37.037632,-3.9556233 c 0,-2.76 2.24,-5 5,-5 2.76,0 5,2.24 5,5 0,2.76 -2.24,5 -5,5 -2.76,0 -5,-2.24 -5,-5 z"
       copytype="single_stretched"
       prop_scale="0.26458333"
       scale_y_rel="false"
       spacing="0"
       normal_offset="0"
       tang_offset="0"
       prop_units="false"
       vertical_pattern="false"
       fuse_tolerance="0" />
    <inkscape:path-effect
       effect="skeletal"
       id="path-effect4701"
       is_visible="true"
       pattern="m -28.485007,1.9587864 c 0,-2.76 2.24,-5 5,-5 2.76,0 5,2.24 5,5 0,2.76 -2.24,5 -5,5 -2.76,0 -5,-2.24 -5,-5 z"
       copytype="single_stretched"
       prop_scale="0.26458333"
       scale_y_rel="false"
       spacing="0"
       normal_offset="0"
       tang_offset="0"
       prop_units="false"
       vertical_pattern="false"
       fuse_tolerance="0" />
  </defs>
  <sodipodi:namedview
     id="base"
     pagecolor="#ffffff"
     bordercolor="#666666"
     borderopacity="1.0"
     inkscape:pageopacity="0.0"
     inkscape:pageshadow="2"
     inkscape:zoom="1.979899"
     inkscape:cx="108.26094"
     inkscape:cy="103.16689"
     inkscape:document-units="mm"
     inkscape:current-layer="layer1"
     showgrid="true"
     units="px"
     inkscape:pagecheckerboard="true"
     showguides="true"
     inkscape:guide-bbox="true"
     inkscape:window-width="1366"
     inkscape:window-height="705"
     inkscape:window-x="-8"
     inkscape:window-y="-8"
     inkscape:window-maximized="1">
    <sodipodi:guide
       position="0,0"
       orientation="0,200"
       id="guide4521"
       inkscape:locked="false" />
    <sodipodi:guide
       position="52.916666,0"
       orientation="-200,0"
       id="guide4523"
       inkscape:locked="false" />
    <sodipodi:guide
       position="52.916666,52.916666"
       orientation="0,-200"
       id="guide4525"
       inkscape:locked="false" />
    <sodipodi:guide
       position="0,52.916666"
       orientation="200,0"
       id="guide4527"
       inkscape:locked="false" />
    <sodipodi:guide
       position="-37.016828,69.490079"
       orientation="-0.70710678,0.70710678"
       id="guide8521"
       inkscape:locked="false" />
    <sodipodi:guide
       position="26.459683,64.278321"
       orientation="1,0"
       id="guide8523"
       inkscape:locked="false" />
  </sodipodi:namedview>
  <metadata
     id="metadata5">
    <rdf:RDF>
      <cc:Work
         rdf:about="">
        <dc:format>image/svg+xml</dc:format>
        <dc:type
           rdf:resource="http://purl.org/dc/dcmitype/StillImage" />
        <dc:title></dc:title>
      </cc:Work>
    </rdf:RDF>
  </metadata>
  <g
     inkscape:label="Layer 1"
     inkscape:groupmode="layer"
     id="layer1"
     transform="translate(0,-244.08332)">
    <ellipse
       style="fill:#ffffff;fill-opacity:1;stroke:#000000;stroke-width:1.89999998;stroke-linecap:square;stroke-linejoin:miter;stroke-miterlimit:4;stroke-dasharray:none;stroke-opacity:1;paint-order:stroke fill markers"
       id="path4535"
       cx="-22.51746"
       cy="277.6243"
       rx="10.623963"
       ry="10.956703" />
    <path
       style="fill:#ffffff;fill-opacity:1;stroke:#000000;stroke-width:1.89999998;stroke-linecap:square;stroke-linejoin:miter;stroke-miterlimit:4;stroke-dasharray:none;stroke-opacity:1;paint-order:stroke fill markers"
       id="path4535-0"
       sodipodi:type="arc"
       sodipodi:cx="-22.317003"
       sodipodi:cy="280.16202"
       sodipodi:rx="10.623964"
       sodipodi:ry="10.956703"
       sodipodi:start="0"
       sodipodi:end="3.1424937"
       d="m -11.693039,280.16202 a 10.623964,10.956703 0 0 1 -5.314746,9.49043 10.623964,10.956703 0 0 1 -10.626726,-0.005 10.623964,10.956703 0 0 1 -5.306452,-9.49536 l 10.62396,0.01 z" />
    <rect
       style="fill:#ffffff;fill-opacity:1;stroke:#000000;stroke-width:1.89999998;stroke-linecap:square;stroke-linejoin:miter;stroke-miterlimit:4;stroke-dasharray:none;stroke-opacity:1;paint-order:stroke fill markers"
       id="rect4554"
       width="21.648832"
       height="13.497118"
       x="-26.441095"
       y="243.36172" />
    <path
       style="fill:#000000;fill-opacity:1;stroke:#000000;stroke-width:1.89999998;stroke-linecap:square;stroke-linejoin:miter;stroke-miterlimit:4;stroke-dasharray:none;stroke-opacity:1;paint-order:stroke fill markers"
       id="path4560-4"
       sodipodi:type="arc"
       sodipodi:cx="-31.136847"
       sodipodi:cy="251.56419"
       sodipodi:rx="1.1358951"
       sodipodi:ry="0.801808"
       sodipodi:start="0"
       sodipodi:end="6.2777399"
       d="m -30.000951,251.56419 a 1.1358951,0.801808 0 0 1 -1.134349,0.80181 1.1358951,0.801808 0 0 1 -1.137437,-0.79962 1.1358951,0.801808 0 0 1 1.131251,-0.80399 1.1358951,0.801808 0 0 1 1.140518,0.79744 l -1.135879,0.004 z" />
    <path
       style="fill:#ffffff;fill-opacity:1;stroke:#000000;stroke-width:1.89999998;stroke-linecap:square;stroke-linejoin:miter;stroke-miterlimit:4;stroke-dasharray:none;stroke-opacity:1;paint-order:stroke fill markers"
       id="path4579"
       sodipodi:type="arc"
       sodipodi:cx="-23.920622"
       sodipodi:cy="263.45764"
       sodipodi:rx="2.5390604"
       sodipodi:ry="2.0713389"
       sodipodi:start="0"
       sodipodi:end="6.2777399"
       d="m -21.381562,263.45764 a 2.5390604,2.0713389 0 0 1 -2.535603,2.07134 2.5390604,2.0713389 0 0 1 -2.542508,-2.0657 2.5390604,2.0713389 0 0 1 2.528681,-2.07696 2.5390604,2.0713389 0 0 1 2.549393,2.06004 l -2.539023,0.0113 z" />
    <path
       style="fill:#000000;stroke:none;stroke-width:0.26458332px;stroke-linecap:butt;stroke-linejoin:miter;stroke-opacity:1"
       d="m -31.136847,251.56419 c 0.41122,-0.53068 3.172135,0.90865 6.381763,3.28923 0,0 0,0 0,1e-5 0.271518,0.23462 0.546032,0.48313 0.818904,0.74567 1.174929,1.13043 2.092412,2.3056 2.728114,3.52452 0,0 0,0 0,0 0.42989,0.81737 0.666117,1.61963 0.718517,2.35399 0.125106,1.53416 -0.684517,2.05031 -0.892048,1.96877 -0.294225,-0.11561 -0.327069,-0.77394 -0.731773,-1.58654 -0.240782,-0.48315 -0.541604,-0.90685 -1.018431,-1.52466 -1e-6,0 -1e-6,0 -1e-6,0 -0.713808,-0.91589 -1.498407,-1.72695 -2.58083,-2.77442 -0.161567,-0.15635 -0.566897,-0.54555 -0.728464,-0.7019 0,0 -10e-7,0 -10e-7,0 -3.039111,-2.46099 -5.106711,-4.76432 -4.69575,-5.29467 z"
       id="path4583"
       inkscape:connector-curvature="0"
       inkscape:path-effect="#path-effect4585"
       inkscape:original-d="m -31.136898,251.56416 c 0,0 11.492515,7.46098 9.755301,11.88222" />
    <path
       style="fill:#000000;stroke:none;stroke-width:0.26458332px;stroke-linecap:butt;stroke-linejoin:miter;stroke-opacity:1"
       d="m -27.127866,263.8585 c -0.66489,0.11122 -1.629913,-2.28281 -2.242723,-5.458 0,0 0,0 0,0 -0.06458,-0.25477 -0.127584,-0.511 -0.190781,-0.77158 -0.348116,-1.43536 -0.489522,-2.06968 -0.799267,-3.20815 0,0 0,0 0,0 -0.19985,-0.71965 -0.271693,-1.01336 -0.443572,-1.52035 -0.216193,-0.5556 -0.397432,-1.18505 -0.332639,-1.33623 0.105966,-0.24726 0.808681,-0.35834 1.620654,0.4072 0.441382,0.39075 0.852213,0.92275 1.219274,1.58216 0,0 0,1e-5 0,1e-5 0.555364,0.99156 0.998096,2.17044 1.320496,3.51031 0.06805,0.28279 0.128098,0.56158 0.181242,0.8342 0,0 0,0 0,0 0.463108,3.25881 0.332538,5.84915 -0.332684,5.96043 z"
       id="path4587"
       inkscape:connector-curvature="0"
       inkscape:path-effect="#path-effect4589"
       inkscape:original-d="m -27.127858,263.85857 c 0,0 -1.202608,-11.09165 -4.00899,-12.29438" />
    <path
       style="fill:#00ff00;fill-opacity:1;stroke:#000000;stroke-width:2.26652622;stroke-linecap:square;stroke-linejoin:miter;stroke-miterlimit:4;stroke-dasharray:none;stroke-opacity:1;paint-order:stroke fill markers"
       id="path4591"
       sodipodi:type="arc"
       sodipodi:cx="-18.776171"
       sodipodi:cy="253.56868"
       sodipodi:rx="2.0212891"
       sodipodi:ry="2.4893727"
       sodipodi:start="0"
       sodipodi:end="6.2777399"
       d="m -16.754882,253.56868 a 2.0212891,2.4893727 0 0 1 -2.018537,2.48937 2.0212891,2.4893727 0 0 1 -2.024033,-2.48259 2.0212891,2.4893727 0 0 1 2.013026,-2.49613 2.0212891,2.4893727 0 0 1 2.029514,2.47579 l -2.021259,0.0136 z" />
    <path
       style="fill:#00ff00;fill-opacity:1;stroke:#000000;stroke-width:0.30000001;stroke-linecap:square;stroke-linejoin:miter;stroke-miterlimit:4;stroke-dasharray:none;stroke-opacity:1;paint-order:stroke fill markers"
       id="path4591-5"
       sodipodi:type="arc"
       sodipodi:cx="-16.506248"
       sodipodi:cy="260.38403"
       sodipodi:rx="2.0314536"
       sodipodi:ry="2.4327018"
       sodipodi:start="0"
       sodipodi:end="6.2777399"
       d="m -14.474795,260.38403 a 2.0314536,2.4327018 0 0 1 -2.028688,2.4327 2.0314536,2.4327018 0 0 1 -2.034212,-2.42607 2.0314536,2.4327018 0 0 1 2.02315,-2.43931 2.0314536,2.4327018 0 0 1 2.03972,2.41944 l -2.031423,0.0132 z" />
    <path
       style="fill:#000000;fill-opacity:1;stroke:#000000;stroke-width:1.89999998;stroke-linecap:square;stroke-linejoin:miter;stroke-miterlimit:4;stroke-dasharray:none;stroke-opacity:1;paint-order:stroke fill markers"
       id="path4560-4-0"
       sodipodi:type="arc"
       sodipodi:cx="-17.773422"
       sodipodi:cy="241.22675"
       sodipodi:rx="1.1358951"
       sodipodi:ry="0.801808"
       sodipodi:start="0"
       sodipodi:end="6.2777399"
       d="m -16.637527,241.22675 a 1.1358951,0.801808 0 0 1 -1.134349,0.8018 1.1358951,0.801808 0 0 1 -1.137437,-0.79962 1.1358951,0.801808 0 0 1 1.131252,-0.80399 1.1358951,0.801808 0 0 1 1.140517,0.79744 l -1.135878,0.004 z" />
    <path
       style="fill:#000000;fill-opacity:1;stroke:#000000;stroke-width:1.89999998;stroke-linecap:square;stroke-linejoin:miter;stroke-miterlimit:4;stroke-dasharray:none;stroke-opacity:1;paint-order:stroke fill markers"
       id="path4560-4-9"
       sodipodi:type="arc"
       sodipodi:cx="-6.6853952"
       sodipodi:cy="257.71136"
       sodipodi:rx="1.1358951"
       sodipodi:ry="0.801808"
       sodipodi:start="0"
       sodipodi:end="6.2777399"
       d="m -5.5495001,257.71136 a 1.1358951,0.801808 0 0 1 -1.1343488,0.80181 1.1358951,0.801808 0 0 1 -1.1374373,-0.79962 1.1358951,0.801808 0 0 1 1.1312519,-0.80399 1.1358951,0.801808 0 0 1 1.1405174,0.79744 l -1.1358783,0.004 z" />
    <path
       style="fill:#000000;fill-opacity:1;stroke:#000000;stroke-width:1.89999998;stroke-linecap:square;stroke-linejoin:miter;stroke-miterlimit:4;stroke-dasharray:none;stroke-opacity:1;paint-order:stroke fill markers"
       id="path4560-4-6"
       sodipodi:type="arc"
       sodipodi:cx="-9.0908203"
       sodipodi:cy="266.13037"
       sodipodi:rx="1.1358951"
       sodipodi:ry="0.801808"
       sodipodi:start="0"
       sodipodi:end="6.2777399"
       d="m -7.9549252,266.13037 a 1.1358951,0.801808 0 0 1 -1.1343488,0.80181 1.1358951,0.801808 0 0 1 -1.137437,-0.79963 1.1358951,0.801808 0 0 1 1.1312516,-0.80398 1.1358951,0.801808 0 0 1 1.1405174,0.79743 l -1.1358783,0.004 z" />
    <path
       style="fill:#ffffff;fill-opacity:1;stroke:#000000;stroke-width:0.15152289;stroke-linecap:square;stroke-linejoin:miter;stroke-miterlimit:4;stroke-dasharray:none;stroke-opacity:1;paint-order:stroke fill markers"
       d="m -22.233701,271.63194 c -0.04907,-0.64312 -0.179666,-1.67223 -0.290219,-2.28692 -0.110551,-0.61469 -0.178001,-1.14062 -0.149889,-1.16873 0.02811,-0.0281 0.888261,0.80443 1.91144,1.8501 l 1.860322,1.90123 -0.964062,0.0886 c -0.665642,0.0612 -1.156902,0.1964 -1.58704,0.43681 -0.342638,0.19151 -0.638357,0.34819 -0.657159,0.34819 -0.01881,0 -0.07432,-0.52619 -0.123393,-1.1693 z"
       id="path4650"
       inkscape:connector-curvature="0" />
    <path
       style="fill:#ffffff;fill-opacity:1;stroke:#000000;stroke-width:1.89999998;stroke-linecap:square;stroke-linejoin:miter;stroke-miterlimit:4;stroke-dasharray:none;stroke-opacity:1;paint-order:stroke fill markers"
       id="path4579-3"
       sodipodi:type="arc"
       sodipodi:cx="33.542278"
       sodipodi:cy="247.20576"
       sodipodi:rx="2.5390604"
       sodipodi:ry="2.0713389"
       sodipodi:start="0"
       sodipodi:end="6.2777399"
       d="m 36.081339,247.20576 a 2.5390604,2.0713389 0 0 1 -2.535604,2.07134 2.5390604,2.0713389 0 0 1 -2.542508,-2.0657 2.5390604,2.0713389 0 0 1 2.528682,-2.07696 2.5390604,2.0713389 0 0 1 2.549392,2.06005 l -2.539023,0.0113 z"
       transform="scale(-1,1)" />
    <path
       style="fill:#000000;stroke:none;stroke-width:0.26458332px;stroke-linecap:butt;stroke-linejoin:miter;stroke-opacity:1"
       d="m -26.326048,235.31233 c 0.410961,0.53035 -1.656639,2.83368 -4.695751,5.29467 0,0 0,0 0,0 -0.493316,0.47561 -0.235149,0.22629 -0.728465,0.7019 -1.082422,1.04747 -1.867021,1.85853 -2.58083,2.77442 0,0 0,0 0,0 -0.476827,0.61781 -0.77765,1.04151 -1.018431,1.52466 -0.404704,0.8126 -0.437548,1.47093 -0.731773,1.58654 -0.207531,0.0815 -1.017154,-0.43461 -0.892048,-1.96877 0.0524,-0.73436 0.288627,-1.53662 0.718516,-2.35399 0,0 0,0 0,0 0.635702,-1.21892 1.553186,-2.39409 2.728115,-3.52452 0.272872,-0.26254 0.547386,-0.51105 0.818903,-0.74567 0,0 10e-7,-1e-5 10e-7,-1e-5 3.209628,-2.38058 5.970543,-3.81991 6.381763,-3.28923 z"
       id="path4583-1"
       inkscape:connector-curvature="0"
       inkscape:path-effect="#path-effect4697"
       inkscape:original-d="m -26.325997,235.3123 c 0,0 -11.492516,7.46098 -9.755301,11.88222" />
    <path
       style="fill:#000000;stroke:none;stroke-width:0.26458332px;stroke-linecap:butt;stroke-linejoin:miter;stroke-opacity:1"
       d="m -21.782404,253.52105 c -0.665222,-0.11128 -0.795792,-2.70162 -0.332684,-5.96043 0,0 0,0 0,0 0.05314,-0.27262 0.113195,-0.55141 0.181242,-0.8342 0.3224,-1.33987 0.765132,-2.51875 1.320496,-3.51031 0,0 0,-10e-6 0,-10e-6 0.367061,-0.65941 0.777892,-1.19141 1.219274,-1.58216 0.811973,-0.76554 1.514688,-0.65446 1.620654,-0.4072 0.06479,0.15118 -0.116446,0.78063 -0.332639,1.33623 -0.171879,0.50699 -0.243722,0.8007 -0.443572,1.52035 0,0 0,0 0,0 -0.309745,1.13847 -0.451151,1.77279 -0.799267,3.20815 -0.0632,0.26058 -0.1262,0.51681 -0.190781,0.77158 0,0 0,0 0,0 -0.61281,3.17519 -1.577833,5.56922 -2.242723,5.458 z"
       id="path4587-9"
       inkscape:connector-curvature="0"
       inkscape:path-effect="#path-effect4701"
       inkscape:original-d="m -21.782412,253.52112 c 0,0 1.202608,-11.09165 4.00899,-12.29438" />
    <path
       style="fill:#ffffff;fill-opacity:1;stroke:#000000;stroke-width:0.15152289;stroke-linecap:square;stroke-linejoin:miter;stroke-miterlimit:4;stroke-dasharray:none;stroke-opacity:1;paint-order:stroke fill markers"
       d="m -22.400257,249.66827 c 0.04907,-0.64312 0.179665,-1.67223 0.290218,-2.28692 0.110551,-0.61469 0.178002,-1.14062 0.14989,-1.16873 -0.02811,-0.0281 -0.888262,0.80443 -1.91144,1.8501 l -1.860323,1.90123 0.964062,0.0886 c 0.665642,0.0612 1.156902,0.1964 1.58704,0.43681 0.342638,0.19151 0.638358,0.34819 0.657159,0.34819 0.01881,0 0.07432,-0.52619 0.123394,-1.1693 z"
       id="path4650-3"
       inkscape:connector-curvature="0" />
    <circle
       style="fill:#ffffff;fill-opacity:1;stroke:#000000;stroke-width:0.30000001;stroke-linecap:square;stroke-linejoin:miter;stroke-miterlimit:4;stroke-dasharray:none;stroke-opacity:1;paint-order:stroke fill markers"
       id="path8519"
       cx="-25.591055"
       cy="256.97635"
       r="11.292137" />
    <path
       style="fill:none;fill-opacity:1;stroke:#000000;stroke-width:0.26499999;stroke-linecap:square;stroke-linejoin:miter;stroke-miterlimit:4;stroke-dasharray:none;stroke-opacity:1;paint-order:stroke fill markers"
       id="path11330"
       sodipodi:type="arc"
       sodipodi:cx="-17.840242"
       sodipodi:cy="280.897"
       sodipodi:rx="11.024868"
       sodipodi:ry="11.024868"
       sodipodi:start="0"
       sodipodi:end="3.1415927"
       d="m -6.8153744,280.897 a 11.024868,11.024868 0 0 1 -5.5124346,9.54782 11.024868,11.024868 0 0 1 -11.024868,0 11.024868,11.024868 0 0 1 -5.512433,-9.54782 l 11.024868,0 z" />
    <path
       style="fill:#000000;stroke:none;stroke-width:0.26458332px;stroke-linecap:butt;stroke-linejoin:miter;stroke-opacity:1"
       d="m -34.588352,241.94472 c 0.0096,-0.0183 0.02299,-0.034 0.04027,-0.0479 0,0 10e-7,0 10e-7,0 0.01615,-0.0129 0.03563,-0.024 0.05832,-0.0333 0.04517,-0.0185 0.10337,-0.03 0.173798,-0.0349 l 0,0 0,0 c 0.139079,-0.01 0.32805,0.005 0.560615,0.0421 l 0,0 c 0.453788,0.0714 1.097525,0.2271 1.872726,0.42523 l 0,0 c 1.504431,0.38405 3.555917,0.9422 5.935863,1.3547 1.12126,0.19227 2.318365,0.35527 3.550101,0.4428 1.364815,0.097 2.637669,0.0919 3.847019,-0.01 0,0 1e-6,0 1e-6,0 4.611809,-0.38483 7.662231,-2.33188 8.015493,-1.87138 0.263132,0.34301 -2.118444,3.50115 -7.715836,4.35733 0,0 -1e-6,0 -1e-6,0 -1.363134,0.2081 -2.813278,0.2687 -4.331298,0.16409 -1.375452,-0.0948 -2.681445,-0.31655 -3.881503,-0.60847 -2.548155,-0.61547 -4.622633,-1.5278 -6.030539,-2.33186 l 0,0 c -0.73299,-0.41832 -1.285412,-0.80755 -1.643496,-1.12892 l 0,0 c -0.181422,-0.16283 -0.311432,-0.30667 -0.388135,-0.42777 l 0,0 0,0 c -0.03834,-0.0607 -0.06316,-0.1154 -0.07416,-0.16364 -0.0055,-0.0242 -0.0075,-0.0467 -0.006,-0.0675 0,0 0,0 0,0 0.0017,-0.0223 0.0072,-0.0423 0.0168,-0.0606 z"
       id="path11356"
       inkscape:connector-curvature="0"
       inkscape:path-effect="#path-effect11358"
       inkscape:original-d="m -34.588397,241.9447 c 0,0 14.29892,7.75082 24.054258,0.26727" />
    <path
       style="fill:#000000;stroke:none;stroke-width:0.26458332px;stroke-linecap:butt;stroke-linejoin:miter;stroke-opacity:1"
       d="m -34.605065,247.52924 c 0.01377,-0.0243 0.03629,-0.0427 0.06849,-0.0564 0.03014,-0.0128 0.06825,-0.0207 0.114214,-0.0237 0.09052,-0.006 0.210442,0.007 0.358128,0.0409 l 10e-7,0 0,0 c 0.285983,0.0655 0.674483,0.20736 1.143262,0.43806 l 0,0 c 0.839899,0.41269 2.009531,1.14768 3.17796,2.28974 l 0,0 c 1.026072,0.9978 2.112081,2.40071 2.777293,4.21466 l 0,0 c 0.644364,1.80486 0.771538,3.92316 0.176394,6.02366 -0.115331,0.43124 -0.28367,0.91642 -0.553553,1.42108 -0.0032,0.006 -0.0064,0.0119 -0.0096,0.0179 -0.138009,0.32164 -0.451399,0.70653 -0.975066,1.06981 0,0 -4e-6,0 -4e-6,0 -0.498022,0.28413 -1.051927,0.34868 -1.599656,0.19262 -0.541101,-0.20414 -0.904293,-0.4674 -1.107377,-0.71681 -0.680773,-0.73286 -1.084334,-1.51269 -1.367469,-2.16529 -0.463733,-1.0063 -0.820027,-2.01028 -1.112495,-2.92926 -1.360504,-5.44845 -1.997295,-9.26264 -1.49555,-9.41494 0,0 1e-6,0 1e-6,0 0.004,-0.001 0.004,-0.001 0.004,-0.001 0,0 -2e-6,-1e-5 0.004,-0.001 0,0 1e-6,0 1e-6,0 0.512468,-0.11309 2.020431,3.45674 3.756665,8.67865 0.340235,0.83287 0.714377,1.7184 1.144794,2.54432 0.324887,0.59312 0.597814,1.1434 0.936323,1.44499 0.120138,0.0759 0.108287,0.10503 0.01021,0.0391 -0.195833,-0.0481 -0.353278,-0.031 -0.532546,0.062 0,0 -2e-6,0 -2e-6,0 -0.09702,0.11477 -0.07989,0.0292 0.02087,-0.0874 0.0015,-0.003 0.0031,-0.005 0.0046,-0.008 0.129167,-0.22135 0.226511,-0.52715 0.336332,-0.87735 0.462215,-1.56922 0.445135,-3.17104 0.05202,-4.53884 l 0,0 c -0.391028,-1.41517 -1.177067,-2.68271 -1.923325,-3.67621 l 0,0 c -0.851406,-1.12557 -1.77733,-2.04341 -2.384178,-2.65526 l 0,0 c -0.344028,-0.34645 -0.621769,-0.62929 -0.800023,-0.84404 l 0,0 0,0 c -0.09382,-0.11262 -0.162002,-0.20873 -0.200919,-0.28755 -0.01986,-0.0402 -0.03228,-0.0762 -0.03677,-0.10793 -0.0047,-0.034 -8.75e-4,-0.0622 0.01288,-0.0865 z"
       id="path11364"
       inkscape:connector-curvature="0"
       inkscape:path-effect="#path-effect11366"
       inkscape:original-d="m -34.605139,247.5292 c 0,0 8.819895,4.67722 6.548104,12.56167 -2.271792,7.88445 -6.949009,-12.16076 -6.949009,-12.16076" />
    <path
       style="fill:#000000;stroke:none;stroke-width:0.26458332px;stroke-linecap:butt;stroke-linejoin:miter;stroke-opacity:1"
       d="m -22.559909,246.82763 c 0.367256,0.24955 -0.794148,2.65817 -2.874152,6.14558 m 0.05301,-0.0838 c -0.588792,1.2581 -1.279532,2.78615 -1.51042,4.27594 -0.08201,0.56309 -0.125869,1.10997 -0.02034,1.56287 0.08088,0.3627 0.241172,0.7144 0.476181,0.92861 0.06202,0.016 0.107526,0.0413 0.131799,0.0669 0.05877,0.0621 -0.0083,0.12355 -0.252276,0.0636 -0.04436,0.13985 0.03025,-0.12563 0.3144,-0.45383 0.753002,-1.26097 1.118909,-3.0192 1.486663,-4.48005 m -0.01118,0.0733 c 0.848156,-4.86864 1.704374,-8.14247 2.20176,-8.09967 -2.9e-5,2.7e-4 -2.8e-5,2.7e-4 -2.8e-5,2.7e-4 0.0046,2.5e-4 0.0046,2.7e-4 0.0046,2.7e-4 0,0 3e-6,-2e-5 0.0046,3.7e-4 0,0 1e-6,0 1e-6,0 0.492121,0.084 0.496936,3.46795 0.09262,8.39334 m -0.01118,0.0733 c -0.204458,1.50046 -0.516505,3.4623 -1.481807,5.30529 -0.197949,0.54107 -0.732967,1.21554 -1.746684,1.68645 -0.860777,0.15063 -1.580283,0.0143 -2.088895,-0.29605 -0.21092,-0.12871 -0.383768,-0.2863 -0.514704,-0.4632 -0.652241,-0.6731 -1.041142,-1.49132 -1.181368,-2.3214 -0.148917,-0.92007 -0.07537,-1.77826 0.09412,-2.52177 0.43073,-1.94398 1.328422,-3.58945 2.124922,-4.83717 m 0.05301,-0.0838 c 2.476387,-3.21807 4.288058,-5.18482 4.655315,-4.93527"
       id="path11368"
       inkscape:connector-curvature="0"
       inkscape:path-effect="#path-effect11370"
       inkscape:original-d="m -22.559869,246.82758 c 0,0 -8.419034,10.15622 -4.810896,13.76436 3.608138,3.60814 4.810896,-13.76436 4.810896,-13.76436 z" />
    <path
       style="fill:#000000;stroke:none;stroke-width:0.26458332px;stroke-linecap:butt;stroke-linejoin:miter;stroke-opacity:1"
       d="m -42.666485,245.14222 c 0.595121,0.01 0.779068,8.7124 0.498241,20.71599 10.005571,3.47076 -2.255183,-0.78142 7.750345,2.68931 1.467486,0.34966 2.99564,0.58621 4.528874,0.62711 0.871296,0.0233 1.727905,-0.0171 2.565416,-0.1288 2.729419,-0.33704 5.233504,-1.46095 7.15971,-3.05589 2.023592,-1.68012 3.334878,-3.86261 3.75691,-6.04052 l 0,0 c 0.470197,-2.26815 0.106419,-4.61444 -0.378681,-6.46325 l 0,0 c -0.589339,-2.2169 -1.482948,-4.1395 -2.073578,-5.36348 l 0,0 c -0.34964,-0.72369 -0.637407,-1.28708 -0.823739,-1.69046 l 0,0 c -0.0973,-0.21062 -0.167343,-0.37873 -0.204391,-0.5003 l 0,0 c 0,0 0,0 0,0 -0.01875,-0.062 -0.0292,-0.11277 -0.03074,-0.15168 l 0,0 c 0,0 0,0 0,0 0.01715,-0.034 0.02367,-0.0547 0.02579,-0.0671 0.0021,-0.0121 -1.47e-4,-0.0162 -5.16e-4,-0.0168 0,0 0,0 0,0 0,0 0,0 0,0 0,0 0,0 0,0 0,0 0,0 0,0 0,0 0,0 0,0 0,0 0,0 0,0 0,0 0,0 0,0 0,0 0,0 0,0 0,0 0,0 0,0 0,0 0,0 0,0 -3.2e-5,-5e-5 -2.6e-5,-4e-5 -2.6e-5,-4e-5 0,0 -5e-6,-1e-5 3.6e-5,4e-5 0,0 0,0 0,0 0,0 0,0 0,0 0,0 0,0 0,0 0,0 0,0 0,0 0,0 0,0 0,0 0,0 0,0 0,0 0,0 0,0 0,0 0,0 0,0 0,0 0,0 0,0 0,0 0,0 0,0 0,0 4.64e-4,4.8e-4 0.004,0.004 0.0162,0.004 0.01252,9e-4 0.03416,-4.5e-4 0.07112,-0.009 0,0 0,0 0,0 l 0,0 c 0.03773,0.0117 0.08454,0.0359 0.140265,0.0728 0,0 0,0 0,0 l 0,0 c 0.1089,0.0717 0.249926,0.19052 0.420161,0.35765 l 0,0 c 0.324075,0.31816 0.753284,0.81083 1.245346,1.48137 l 0,0 c 0.845358,1.15077 2.003714,2.99711 2.86295,5.36142 l 0,0 c 0.718934,1.96115 1.294625,4.55485 0.89552,7.35574 l 0,0 c -0.421279,2.73777 -1.885213,5.4832 -4.30338,7.5755 -2.258137,1.95894 -5.192452,3.34308 -8.446764,3.76577 -1.00514,0.12226 -2.021463,0.16343 -3.042714,0.13067 -1.798356,-0.0577 -3.548661,-0.3425 -5.197829,-0.76745 -2.96093,-1.39026 -6.001421,-2.82974 -8.615011,-4.06631 0.119209,-13.00069 0.586386,-21.82647 1.180484,-21.81694 z"
       id="path11376"
       inkscape:connector-curvature="0"
       inkscape:path-effect="#path-effect11378"
       inkscape:original-d="m -42.666485,245.14222 -0.341143,21.26645 c 0,0 13.898015,8.81989 23.653353,0.53454 9.7553383,-8.28536 -0.538596,-21.24686 -0.538596,-21.24686" />
    <path
       style="fill:#ffffff;fill-opacity:1;stroke:#000000;stroke-width:0.50587165;stroke-linecap:square;stroke-linejoin:miter;stroke-miterlimit:4;stroke-dasharray:none;stroke-opacity:1;paint-order:stroke fill markers"
       d=""
       id="path11380"
       inkscape:connector-curvature="0"
       transform="matrix(0.26458333,0,0,0.26458333,0,244.08332)" />
    <path
       style="fill:#ffffff;fill-opacity:1;stroke:#000000;stroke-width:0.13384521;stroke-linecap:square;stroke-linejoin:miter;stroke-miterlimit:4;stroke-dasharray:none;stroke-opacity:1;paint-order:stroke fill markers"
       d="m -27.127866,263.8585 c -0.0771,-0.20119 -0.176408,-0.49503 -0.220682,-0.65298 -0.114391,-0.4081 0.154298,-1.94479 0.545608,-3.12046 0.352053,-1.05773 2.43422,-5.4127 2.538177,-5.30874 0.07667,0.0767 -0.600563,3.1464 -1.274377,5.77641 -0.460977,1.79928 -1.073355,3.43968 -1.347254,3.60896 -0.05571,0.0344 -0.164371,-0.10201 -0.241472,-0.30319 z"
       id="path11382"
       inkscape:connector-curvature="0" />
    <path
       style="fill:#ffffff;fill-opacity:1;stroke:#000000;stroke-width:0.13384521;stroke-linecap:square;stroke-linejoin:miter;stroke-miterlimit:4;stroke-dasharray:none;stroke-opacity:1;paint-order:stroke fill markers"
       d="m -18.902048,271.92761 c -1.759114,-0.26262 -3.038796,-0.62092 -6.435406,-1.80187 l -3.896346,-1.3547 0.0088,-8.369 c 0.0081,-7.67923 -0.09222,-10.83143 -0.381256,-11.98306 -0.06995,-0.27871 0.09015,-0.22321 1.705365,0.5912 2.494891,1.25796 5.315471,2.39612 6.689651,2.69942 4.770623,1.05293 10.141916,0.26174 13.2159063,-1.9467 0.3589814,-0.25791 0.6526927,-0.40157 0.6526927,-0.31925 0,0.55984 0.5074417,3.41496 1.0125551,5.69715 0.7543615,3.40832 1.6370273,5.95681 2.4666733,7.12194 l 0.2862369,0.40198 -0.2916793,0.96029 c -0.8958157,2.94928 -3.0188218,5.33992 -6.139421,6.91339 -2.075939,1.04672 -3.430307,1.35279 -6.221076,1.40586 -1.249484,0.0238 -2.452198,0.0163 -2.672695,-0.0166 z"
       id="path11384"
       inkscape:connector-curvature="0" />
    <path
       style="fill:#ffffff;fill-opacity:1;stroke:#000000;stroke-width:0.13384521;stroke-linecap:square;stroke-linejoin:miter;stroke-miterlimit:4;stroke-dasharray:none;stroke-opacity:1;paint-order:stroke fill markers"
       d="m -30.360637,254.42077 c -0.04622,-0.18374 -0.180369,-0.78164 -0.298109,-1.32866 -0.391737,-1.82001 -1.34652,-4.11731 -2.48272,-5.97364 -0.295849,-0.48336 -0.513239,-0.9035 -0.48309,-0.93365 0.03015,-0.0301 0.469538,0.38278 0.976416,0.91762 1.375809,1.4517 2.214581,3.19976 2.453545,5.11336 0.125068,1.00155 -0.01175,2.81838 -0.166042,2.20497 z"
       id="path11388"
       inkscape:connector-curvature="0" />
    <path
       style="fill:none;stroke:#000000;stroke-width:0.26458332px;stroke-linecap:butt;stroke-linejoin:miter;stroke-opacity:1"
       d="M 0,296.99999 V 244.08332"
       id="path11750"
       inkscape:connector-curvature="0"
       inkscape:export-xdpi="78.7472"
       inkscape:export-ydpi="78.7472" />
    <path
       style="fill:none;stroke:#000000;stroke-width:0.26458332px;stroke-linecap:butt;stroke-linejoin:miter;stroke-opacity:1"
       d="M 52.916666,244.08332 H 0"
       id="path11752"
       inkscape:connector-curvature="0"
       inkscape:export-xdpi="78.7472"
       inkscape:export-ydpi="78.7472" />
    <path
       style="fill:none;stroke:#000000;stroke-width:0.26458332px;stroke-linecap:butt;stroke-linejoin:miter;stroke-opacity:1"
       d="M 52.916666,296.99999 H 0"
       id="path11754"
       inkscape:connector-curvature="0"
       inkscape:export-xdpi="78.7472"
       inkscape:export-ydpi="78.7472" />
    <path
       style="fill:none;stroke:#000000;stroke-width:0.26458332px;stroke-linecap:butt;stroke-linejoin:miter;stroke-opacity:1"
       d="m 52.916666,244.08332 v 52.91667"
       id="path11756"
       inkscape:connector-curvature="0"
       inkscape:export-xdpi="78.7472"
       inkscape:export-ydpi="78.7472" />
    <path
       style="fill:none;stroke:#000000;stroke-width:0.26458332px;stroke-linecap:butt;stroke-linejoin:miter;stroke-opacity:1"
       d="M 0,296.99999 52.916666,244.08332"
       id="path11758"
       inkscape:connector-curvature="0"
       inkscape:export-xdpi="78.7472"
       inkscape:export-ydpi="78.7472" />
    <path
       style="fill:none;stroke:#000000;stroke-width:0.26458332px;stroke-linecap:butt;stroke-linejoin:miter;stroke-opacity:1"
       d="m 0,244.08332 52.916666,52.91667"
       id="path11760"
       inkscape:connector-curvature="0"
       inkscape:export-xdpi="78.7472"
       inkscape:export-ydpi="78.7472" />
    <path
       style="fill:#ffffff;fill-opacity:1;fill-rule:evenodd;stroke:#000000;stroke-width:0.13363476;stroke-linecap:square;stroke-linejoin:miter;stroke-miterlimit:4;stroke-dasharray:none;stroke-opacity:1;paint-order:stroke fill markers"
       d="M 73.038671,261.17502 60.076616,248.21245 h 25.924627 25.924627 l -12.962055,12.96257 c -7.129129,7.12942 -12.962287,12.96258 -12.962572,12.96258 -2.64e-4,0 -5.833442,-5.83316 -12.962572,-12.96258 z"
       id="path11764"
       inkscape:connector-curvature="0"
       inkscape:export-xdpi="78.7472"
       inkscape:export-ydpi="78.7472" />
    <path
       style="fill:#e3dbdb;fill-opacity:1;fill-rule:evenodd;stroke:#000000;stroke-width:0.13363476;stroke-linecap:square;stroke-linejoin:miter;stroke-miterlimit:4;stroke-dasharray:none;stroke-opacity:1;paint-order:stroke fill markers"
       d="M 70.158251,282.09989 V 256.1081 l 12.995895,12.99589 12.995894,12.9959 -12.995894,12.99589 -12.995895,12.9959 z"
       id="path11766"
       inkscape:connector-curvature="0"
       inkscape:export-xdpi="78.7472"
       inkscape:export-ydpi="78.7472" />
    <path
       style="fill:#ac9393;fill-opacity:1;fill-rule:evenodd;stroke:#000000;stroke-width:0.13363476;stroke-linecap:square;stroke-linejoin:miter;stroke-miterlimit:4;stroke-dasharray:none;stroke-opacity:1;paint-order:stroke fill markers"
       d="m 77.972671,283.97057 13.028876,-13.02939 12.996233,12.99572 c 7.14794,7.14765 12.99624,13.01087 12.99624,13.02939 0,0.0185 -11.7113,0.0337 -26.025112,0.0337 H 64.943795 Z"
       id="path11768"
       inkscape:connector-curvature="0"
       inkscape:export-xdpi="78.7472"
       inkscape:export-ydpi="78.7472" />
    <path
       style="fill:#6c5353;fill-opacity:1;fill-rule:evenodd;stroke:#000000;stroke-width:0.13363476;stroke-linecap:square;stroke-linejoin:miter;stroke-miterlimit:4;stroke-dasharray:none;stroke-opacity:1;paint-order:stroke fill markers"
       d="M 70.525568,294.31636 57.563427,281.3537 70.559236,268.35789 83.555043,255.36208 v 25.95847 c 0,14.27715 -0.01516,25.95847 -0.03367,25.95847 -0.01852,0 -5.866633,-5.8332 -12.995809,-12.96266 z"
       id="path11770"
       inkscape:connector-curvature="0"
       inkscape:export-xdpi="78.7472"
       inkscape:export-ydpi="78.7472" />
    <path
       style="fill:#483737;fill-opacity:1;fill-rule:evenodd;stroke:#000000;stroke-width:0.13363476;stroke-linecap:square;stroke-linejoin:miter;stroke-miterlimit:4;stroke-dasharray:none;stroke-opacity:1;paint-order:stroke fill markers"
       d="m 81.350329,277.8879 c 7.129273,-7.13069 13.037788,-12.94881 13.130036,-12.92917 0.09225,0.0196 5.945595,5.80874 13.007435,12.86465 l 12.83973,12.82894 -2.0494,0.0825 c -1.12716,0.0454 -12.81355,0.0905 -25.969751,0.10023 l -23.920364,0.0177 z"
       id="path11772"
       inkscape:connector-curvature="0"
       inkscape:export-xdpi="78.7472"
       inkscape:export-ydpi="78.7472" />
    <path
       style="fill:#916f6f;fill-opacity:1;fill-rule:evenodd;stroke:#000000;stroke-width:0.13363476;stroke-linecap:square;stroke-linejoin:miter;stroke-miterlimit:4;stroke-dasharray:none;stroke-opacity:1;paint-order:stroke fill markers"
       d="M 78.811528,291.15393 65.98311,278.27975 78.878087,265.38426 c 7.092238,-7.09252 12.940194,-12.8955 12.995462,-12.8955 0.123423,0 0.13498,45.29826 0.01249,48.95565 -0.04839,1.44506 -0.123566,2.61754 -0.167042,2.60553 -0.04348,-0.012 -5.85184,-5.81522 -12.907471,-12.89601 z"
       id="path11774"
       inkscape:connector-curvature="0"
       inkscape:export-xdpi="78.7472"
       inkscape:export-ydpi="78.7472" />
    <path
       style="fill:#ffffff;fill-opacity:1;fill-rule:evenodd;stroke:#000000;stroke-width:0.50507629;stroke-linecap:square;stroke-linejoin:miter;stroke-miterlimit:4;stroke-dasharray:none;stroke-opacity:1;paint-order:stroke fill markers"
       d="M 51.047949,49.96203 2.0575034,0.96963103 H 100.04035 198.02319 L 149.03275,49.96203 c -26.94475,26.945819 -48.99133,48.992398 -48.9924,48.992398 -0.001,0 -22.047657,-22.046579 -48.992401,-48.992398 z"
       id="path11776"
       inkscape:connector-curvature="0"
       transform="matrix(0.26458333,0,0,0.26458333,0,244.08332)" />
    <path
       style="fill:#e3dbdb;fill-opacity:1;fill-rule:evenodd;stroke:#000000;stroke-width:0.50507629;stroke-linecap:square;stroke-linejoin:miter;stroke-miterlimit:4;stroke-dasharray:none;stroke-opacity:1;paint-order:stroke fill markers"
       d="M 0.79286011,99.964581 V 1.7278946 L 49.911203,50.846238 99.029544,99.964581 49.911203,149.08292 0.79286011,198.20126 Z"
       id="path11778"
       inkscape:connector-curvature="0"
       transform="matrix(0.26458333,0,0,0.26458333,0,244.08332)" />
    <path
       style="fill:#e3dbdb;fill-opacity:1;fill-rule:evenodd;stroke:#000000;stroke-width:0.13363476;stroke-linecap:square;stroke-linejoin:miter;stroke-miterlimit:4;stroke-dasharray:none;stroke-opacity:1;paint-order:stroke fill markers"
       d="m 86.194423,279.8281 13.028957,-13.02947 12.29223,12.29223 12.29223,12.29223 -0.72808,0.73724 -0.72809,0.73724 H 97.758568 73.165464 Z"
       id="path11780"
       inkscape:connector-curvature="0" />
    <path
       style="fill:#ac9393;fill-opacity:1;fill-rule:evenodd;stroke:#000000;stroke-width:0.50507629;stroke-linecap:square;stroke-linejoin:miter;stroke-miterlimit:4;stroke-dasharray:none;stroke-opacity:1;paint-order:stroke fill markers"
       d="m 50.783266,150.21967 49.242994,-49.24494 49.11964,49.1177 c 27.0158,27.01473 49.11964,49.17495 49.11964,49.24494 0,0.07 -44.26319,0.12724 -98.362639,0.12724 H 1.5402696 Z"
       id="path11784"
       inkscape:connector-curvature="0"
       transform="matrix(0.26458333,0,0,0.26458333,0,244.08332)" />
    <path
       style="fill:#6c5353;fill-opacity:1;fill-rule:evenodd;stroke:#000000;stroke-width:0.50507629;stroke-linecap:square;stroke-linejoin:miter;stroke-miterlimit:4;stroke-dasharray:none;stroke-opacity:1;paint-order:stroke fill markers"
       d="M 150.03043,148.95665 101.03965,99.963929 150.15767,50.845911 199.27569,1.7278946 V 99.838635 c 0,53.960905 -0.0573,98.110745 -0.12725,98.110745 -0.07,0 -22.17309,-22.04673 -49.11801,-48.99273 z"
       id="path11786"
       inkscape:connector-curvature="0"
       transform="matrix(0.26458333,0,0,0.26458333,0,244.08332)" />
  </g>
</svg>
