<?xml version="1.0" encoding="UTF-8" standalone="no"?>
<!-- Created with Inkscape (http://www.inkscape.org/) -->

<svg
   xmlns:dc="http://purl.org/dc/elements/1.1/"
   xmlns:cc="http://creativecommons.org/ns#"
   xmlns:rdf="http://www.w3.org/1999/02/22-rdf-syntax-ns#"
   xmlns:svg="http://www.w3.org/2000/svg"
   xmlns="http://www.w3.org/2000/svg"
   xmlns:sodipodi="http://sodipodi.sourceforge.net/DTD/sodipodi-0.dtd"
   xmlns:inkscape="http://www.inkscape.org/namespaces/inkscape"
   width="52.916668mm"
   height="52.916668mm"
   viewBox="0 0 52.916668 52.916668"
   version="1.1"
   id="svg4644"
   inkscape:version="0.92.0 r15299"
   sodipodi:docname="cogStyle1.svg">
  <defs
     id="defs4638" />
  <sodipodi:namedview
     id="base"
     pagecolor="#ffffff"
     bordercolor="#666666"
     borderopacity="1.0"
     inkscape:pageopacity="0.0"
     inkscape:pageshadow="2"
     inkscape:zoom="0.35"
     inkscape:cx="-350.45847"
     inkscape:cy="159.54154"
     inkscape:document-units="mm"
     inkscape:current-layer="layer1"
     showgrid="false"
     inkscape:window-width="1304"
     inkscape:window-height="745"
     inkscape:window-x="-8"
     inkscape:window-y="-8"
     inkscape:window-maximized="1" />
  <metadata
     id="metadata4641">
    <rdf:RDF>
      <cc:Work
         rdf:about="">
        <dc:format>image/svg+xml</dc:format>
        <dc:type
           rdf:resource="http://purl.org/dc/dcmitype/StillImage" />
        <dc:title></dc:title>
      </cc:Work>
    </rdf:RDF>
  </metadata>
  <g
     inkscape:label="Layer 1"
     inkscape:groupmode="layer"
     id="layer1"
     transform="translate(-75.716542,-138.1287)">
    <g
       transform="matrix(0.03527732,0,0,-0.03527732,75.716542,186.52987)"
       id="g3027"
       style="fill:#808080">
      <path
         d="m 1000.0127,622.00969 q 0,103.51694 -73.24333,176.75983 -73.24282,73.24297 -176.75968,73.24297 -103.51699,0 -176.76013,-73.24297 -73.24309,-73.24289 -73.24309,-176.75983 0,-103.51699 73.24309,-176.76013 73.24314,-73.24309 176.76013,-73.24309 103.51686,0 176.75968,73.24309 73.24333,73.24314 73.24333,176.76013 z m 500.0068,106.44669 V 511.65672 q 0,-11.71892 -7.813,-22.46123 -7.8129,-10.74238 -19.5305,-12.69548 l -180.6679,-27.34414 q -18.5542,-52.73506 -38.0859,-88.86832 34.1806,-48.82877 104.4936,-134.7674 9.766,-11.71884 9.766,-24.4143 0,-12.69547 -8.7896,-22.46126 -26.3669,-36.1333 -96.6806,-105.470106 -70.3139,-69.3368455 -91.798,-69.3368455 -11.7185,0 -25.3911,8.7891775 L 1010.7548,118.09689 Q 967.78599,95.635697 921.88741,80.987089 906.26181,-51.827142 893.56618,-100.6559 886.73077,-128 858.40931,-128 H 641.60987 q -13.67207,0 -23.92616,8.30087 -10.25398,8.30094 -11.2306,20.99638 L 579.10899,80.987089 Q 531.25684,96.612287 491.21733,117.12031 L 353.52015,12.626816 q -9.76566,-8.7891775 -24.4143,-8.7891775 -13.67217,0 -24.41437,10.7423275 -123.04849,111.329544 -161.13494,164.064624 -6.83608,9.76579 -6.83608,22.46126 0,11.71889 7.81266,22.46121 14.6486,20.50807 49.80532,64.94225 35.15667,44.43416 52.73512,68.84848 -26.36758,48.82877 -40.03971,96.68096 L 28.320679,480.40632 Q 15.625197,482.35938 7.8126011,492.6135 0,502.8676 0,515.56301 v 216.79963 q 0,11.71891 7.8126011,22.46127 7.8125959,10.74229 18.5549269,12.69546 l 181.643032,27.34412 q 13.67197,44.92209 38.08633,89.84485 -39.06304,55.66476 -104.49349,134.76736 -9.76577,11.7194 -9.76577,23.4379 0,9.7663 8.78919,22.4607 25.39098,35.1573 96.19265,104.9824 70.80168,69.8251 92.28638,69.8251 12.69546,0 25.39084,-9.766 l 134.76746,-104.4936 q 42.96923,22.4611 88.86831,37.1105 15.62518,132.8138 28.32065,181.6433 6.83603,27.3435 35.15676,27.3435 h 216.79944 q 13.67207,0 23.92662,-8.3014 10.25369,-8.2999 11.23025,-20.9961 l 27.34436,-179.6893 q 47.85191,-15.6259 87.89136,-36.1336 l 138.6738,104.4931 q 8.7894,8.7896 23.4379,8.7896 12.6955,0 24.4145,-9.766 125.9777,-116.2124 161.1341,-166.0181 6.8366,-7.8121 6.8366,-21.4841 0,-11.7185 -7.8118,-22.4609 -14.6494,-20.50769 -49.8059,-64.94291 -35.1571,-44.43333 -52.7353,-68.84826 25.3906,-48.82879 40.0398,-95.7043 l 178.713,-27.34418 q 12.695,-1.95312 20.5079,-12.20725 7.813,-10.254 7.813,-22.94942 z"
         id="path3029"
         inkscape:connector-curvature="0"
         style="fill:#808080;stroke-width:0.97657537" />
    </g>
  </g>
</svg>
