<?xml version="1.0" encoding="UTF-8" standalone="no"?>
<!-- Created with Inkscape (http://www.inkscape.org/) -->

<svg
   xmlns:dc="http://purl.org/dc/elements/1.1/"
   xmlns:cc="http://creativecommons.org/ns#"
   xmlns:rdf="http://www.w3.org/1999/02/22-rdf-syntax-ns#"
   xmlns:svg="http://www.w3.org/2000/svg"
   xmlns="http://www.w3.org/2000/svg"
   xmlns:sodipodi="http://sodipodi.sourceforge.net/DTD/sodipodi-0.dtd"
   xmlns:inkscape="http://www.inkscape.org/namespaces/inkscape"
   width="52.916664mm"
   height="52.916668mm"
   viewBox="0 0 52.916664 52.916668"
   version="1.1"
   id="svg5792"
   inkscape:version="0.92.0 r15299"
   sodipodi:docname="cogStyle3.svg">
  <defs
     id="defs5786" />
  <sodipodi:namedview
     id="base"
     pagecolor="#ffffff"
     bordercolor="#666666"
     borderopacity="1.0"
     inkscape:pageopacity="0.0"
     inkscape:pageshadow="2"
     inkscape:zoom="0.35"
     inkscape:cx="-228.35404"
     inkscape:cy="113.07452"
     inkscape:document-units="mm"
     inkscape:current-layer="layer1"
     showgrid="false"
     inkscape:window-width="1304"
     inkscape:window-height="745"
     inkscape:window-x="-8"
     inkscape:window-y="-8"
     inkscape:window-maximized="1" />
  <metadata
     id="metadata5789">
    <rdf:RDF>
      <cc:Work
         rdf:about="">
        <dc:format>image/svg+xml</dc:format>
        <dc:type
           rdf:resource="http://purl.org/dc/dcmitype/StillImage" />
        <dc:title></dc:title>
      </cc:Work>
    </rdf:RDF>
  </metadata>
  <g
     inkscape:label="Layer 1"
     inkscape:groupmode="layer"
     id="layer1"
     transform="translate(-43.409744,-125.8343)">
    <g
       transform="matrix(0.13364056,0,0,-0.13364056,98.177967,196.49748)"
       id="g3039"
       style="fill:#808080">
      <path
         style="fill:#808080;stroke-width:0.25778815"
         d="m -211.83607,528.75548 c -35.91848,0 -69.04425,-8.85073 -99.37733,-26.55219 -30.33307,-17.70146 -54.35033,-41.71872 -72.05179,-72.05177 -17.70145,-30.3331 -26.55218,-63.45887 -26.55218,-99.37735 0,-35.91847 8.85073,-69.04425 26.55218,-99.37733 17.70146,-30.33309 41.71872,-54.35032 72.05179,-72.0518 30.33308,-17.70145 63.45885,-26.55218 99.37733,-26.55218 35.91848,0 69.04426,8.85073 99.37734,26.55218 30.333081,17.70148 54.350325,41.71871 72.051791,72.0518 17.701456,30.33308 26.552184,63.45886 26.552184,99.37733 0,35.91848 -8.850728,69.04425 -26.552184,99.37735 -17.701466,30.33305 -41.71871,54.35031 -72.051791,72.05177 -30.33308,17.70146 -63.45886,26.55219 -99.37734,26.55219 z m -20.41359,-56.76976 h 40.82719 c 1.71616,0 3.21612,-0.5209 4.50324,-1.56285 1.28712,-1.042 1.98805,-2.35382 2.11065,-3.94739 l 5.1477,-33.8347 c 6.00657,-1.96134 11.52893,-4.233 16.55482,-6.80722 l 26.10912,19.68049 c 1.10325,1.10325 2.57589,1.6515 4.41462,1.6515 1.59357,0 3.12084,-0.61093 4.59185,-1.83679 15.81316,-14.58733 25.92545,-25.00507 30.338447,-31.25677 0.858097,-0.98069 1.288937,-2.3279 1.288937,-4.04408 0,-1.47096 -0.493559,-2.88089 -1.47421,-4.22931 -1.838752,-2.57427 -4.964074,-6.6513 -9.377044,-12.22886 -4.413,-5.57752 -7.71836,-9.89732 -9.92485,-12.96187 3.18714,-6.12919 5.70156,-12.13705 7.54031,-18.02102 l 33.649395,-5.1477 c 1.593595,-0.24516 2.878103,-1.01687 3.85878,-2.30398 0.98065,-1.28711 1.466146,-2.72439 1.466146,-4.31796 v -40.81915 c 0,-1.471 -0.485496,-2.88092 -1.466146,-4.22934 -0.980677,-1.34841 -2.210561,-2.14742 -3.681549,-2.39258 l -34.011926,-5.14773 c -2.32907,-6.61948 -4.71809,-12.1965 -7.16973,-16.73204 4.29039,-6.12915 10.84649,-14.58875 19.672454,-25.37605 1.225838,-1.47098 1.836741,-3.00632 1.836741,-4.59989 0,-1.59357 -0.54821,-2.99545 -1.651441,-4.22129 -3.309744,-4.53557 -9.380344,-11.1624 -18.206284,-19.86579 -8.826,-8.70339 -14.58305,-13.05053 -17.27988,-13.05053 -1.47099,0 -3.06902,0.54822 -4.78519,1.65145 l -25.37602,19.85775 c -5.39366,-2.81941 -10.97067,-5.14571 -16.73208,-6.98443 -1.96131,-16.67129 -3.7394,-28.06809 -5.33297,-34.19723 -0.85809,-3.43232 -3.05899,-5.14769 -6.61389,-5.14769 h -40.82719 c -1.71616,0 -3.21612,0.52086 -4.50324,1.56282 -1.28712,1.04194 -1.98806,2.3538 -2.11064,3.9474 l -5.14771,33.8347 c -6.00655,1.9613 -11.52893,4.23295 -16.55483,6.8072 l -25.92383,-19.68052 c -1.22583,-1.10323 -2.76115,-1.65145 -4.5999,-1.65145 -1.71616,0 -3.24344,0.67363 -4.59185,2.02204 -15.44544,13.97444 -25.55771,24.2748 -30.33845,30.89428 -0.85808,1.22584 -1.28894,2.62772 -1.28894,4.22129 0,1.47099 0.49357,2.88094 1.47423,4.22935 1.83873,2.57422 4.96406,6.65129 9.37705,12.2288 4.41297,5.57752 7.71835,9.89733 9.92484,12.96192 -3.30974,6.12915 -5.82415,12.19972 -7.54031,18.20628 l -33.64941,4.96243 c -1.59358,0.24517 -2.87809,1.01686 -3.85877,2.30398 -0.98065,1.28712 -1.46616,2.72438 -1.46616,4.31795 v 40.81918 c 0,1.47096 0.48551,2.88089 1.46616,4.2293 0.98068,1.34842 2.14784,2.14742 3.49626,2.39258 l 34.19721,5.1477 c 1.71616,5.63882 4.10516,11.27859 7.16973,16.9174 -4.90331,6.98718 -11.4594,15.4468 -19.67246,25.37602 -1.22583,1.47097 -1.83674,2.94363 -1.83674,4.41459 0,1.22581 0.54821,2.62771 1.65145,4.22129 3.18716,4.41301 9.23043,11.00443 18.11768,19.76915 8.88727,8.76466 14.67165,13.1472 17.36848,13.1472 1.59357,0 3.19161,-0.61093 4.7852,-1.83679 l 25.37601,-19.67241 c 5.39366,2.81939 10.97067,5.1457 16.73207,6.98443 1.96133,16.67124 3.73941,28.06804 5.33299,34.19718 0.85808,3.43237 3.05898,5.14776 6.61388,5.14776 z m 20.41359,-94.14105 c -12.99378,0 -24.08511,-4.59792 -33.27883,-13.79166 -9.19372,-9.19373 -13.79167,-20.28508 -13.79167,-33.27884 0,-12.99376 4.59795,-24.08512 13.79167,-33.27885 9.19372,-9.1937 20.28505,-13.79166 33.27883,-13.79166 12.9938,0 24.08513,4.59796 33.27886,13.79166 9.1937,9.19373 13.79166,20.28509 13.79166,33.27885 0,12.99376 -4.59796,24.08511 -13.79166,33.27884 -9.19373,9.19374 -20.28506,13.79166 -33.27886,13.79166 z"
         id="path3041"
         inkscape:connector-curvature="0" />
    </g>
  </g>
</svg>
