<?xml version="1.0" encoding="UTF-8" standalone="no"?>
<!-- Created with Inkscape (http://www.inkscape.org/) -->

<svg
   xmlns:dc="http://purl.org/dc/elements/1.1/"
   xmlns:cc="http://creativecommons.org/ns#"
   xmlns:rdf="http://www.w3.org/1999/02/22-rdf-syntax-ns#"
   xmlns:svg="http://www.w3.org/2000/svg"
   xmlns="http://www.w3.org/2000/svg"
   xmlns:xlink="http://www.w3.org/1999/xlink"
   xmlns:sodipodi="http://sodipodi.sourceforge.net/DTD/sodipodi-0.dtd"
   xmlns:inkscape="http://www.inkscape.org/namespaces/inkscape"
   width="52.916679mm"
   height="52.922539mm"
   viewBox="0 0 52.91668 52.922538"
   version="1.1"
   id="svg4489"
   inkscape:version="0.92.0 r15299"
   sodipodi:docname="cogStyle5.svg">
  <defs
     id="defs4483">
    <clipPath
       id="SVGID_2_">
      <use
         xlink:href="#SVGID_1_"
         overflow="visible"
         id="use238"
         style="overflow:visible"
         x="0"
         y="0"
         width="100%"
         height="100%" />
    </clipPath>
    <rect
       id="SVGID_1_"
       width="39.686001"
       height="36.849998"
       x="0"
       y="0" />
  </defs>
  <sodipodi:namedview
     id="base"
     pagecolor="#ffffff"
     bordercolor="#666666"
     borderopacity="1.0"
     inkscape:pageopacity="0.0"
     inkscape:pageshadow="2"
     inkscape:zoom="0.35"
     inkscape:cx="73.563836"
     inkscape:cy="406.48804"
     inkscape:document-units="mm"
     inkscape:current-layer="layer1"
     showgrid="false"
     inkscape:window-width="1304"
     inkscape:window-height="745"
     inkscape:window-x="-8"
     inkscape:window-y="-8"
     inkscape:window-maximized="1" />
  <metadata
     id="metadata4486">
    <rdf:RDF>
      <cc:Work
         rdf:about="">
        <dc:format>image/svg+xml</dc:format>
        <dc:type
           rdf:resource="http://purl.org/dc/dcmitype/StillImage" />
        <dc:title></dc:title>
      </cc:Work>
    </rdf:RDF>
  </metadata>
  <g
     inkscape:label="Layer 1"
     inkscape:groupmode="layer"
     id="layer1"
     transform="translate(-141.26462,-139.74033)">
    <path
       d="m 166.21365,146.74556 c -6.00873,0.47558 -11.24667,3.6899 -14.46948,8.39575 l 13.24847,7.64957 c 0.36153,-0.30418 0.77269,-0.54706 1.22101,-0.72009 z m 3.1047,0 V 162.076 c 0.4465,0.17301 0.86071,0.41177 1.22099,0.71488 l 13.24847,-7.64957 c -3.2228,-4.70585 -8.46075,-7.92017 -14.46946,-8.39575 z m -19.11348,11.08301 c -1.18308,2.50782 -1.84718,5.30493 -1.84718,8.26007 0,3.0104 0.68478,5.8627 1.9098,8.40617 l 13.25368,-7.65479 c -0.0428,-0.24346 -0.0678,-0.49052 -0.0678,-0.74616 0,-0.1976 0.016,-0.39386 0.0418,-0.58442 z m 35.12226,0 -13.29023,7.67567 c 0.0262,0.1922 0.0366,0.39024 0.0366,0.58962 0,0.25758 -0.0244,0.5062 -0.0678,0.75138 l 13.2589,7.64957 c 1.22504,-2.54347 1.90978,-5.39577 1.90978,-8.40617 0,-2.95514 -0.6641,-5.75225 -1.84716,-8.26007 z m -20.19884,11.66743 -13.2902,7.67564 c 3.23002,4.6334 8.42357,7.7942 14.37556,8.26528 V 170.1117 c -0.39346,-0.15201 -0.75738,-0.36141 -1.08536,-0.6157 z m 5.2754,0 c -0.32768,0.2544 -0.6922,0.46355 -1.08534,0.6157 v 15.32522 c 5.95195,-0.47108 11.14552,-3.63186 14.37554,-8.26528 z m -10.05275,-26.39812 -0.88964,0.30556 -0.86174,0.3654 -0.93018,-1.99476 -1.0918,0.49696 -1.01268,0.48438 -1.95027,1.1037 -1.01206,0.64194 -0.9243,0.67386 1.256,1.78212 -0.75476,0.5948 -0.70092,0.60612 -1.64994,1.64364 -0.6298,0.70654 -0.58126,0.73248 -1.81661,-1.26572 -0.69038,0.9412 -0.63721,0.97712 -1.11749,1.97819 -0.52088,1.0443 -0.46238,1.0656 2.04674,0.95198 -0.34863,0.86684 -0.29011,0.88812 -0.62762,2.24762 -0.20702,0.9101 -0.1438,0.94135 -2.27898,-0.20012 -0.1592,1.1428 -0.0714,1.17474 -0.028,2.28368 0.0722,1.1442 0.1352,1.17545 2.30968,-0.20275 0.15199,0.92483 0.1912,0.93082 0.63825,2.22804 0.29626,0.86968 0.35475,0.89098 -2.13439,0.9953 0.52818,1.21082 0.4332,0.90296 1.13161,2.01012 0.29704,0.48075 0.3263,0.4914 0.69246,0.96422 1.94304,-1.37962 0.5855,0.73482 0.61544,0.72086 1.64364,1.64994 0.6826,0.60452 0.76704,0.5773 -1.39408,2.01004 0.91196,0.67973 0.99637,0.65251 1.99284,1.1228 1.03966,0.51091 1.09482,0.473 1.03116,-2.2415 0.85754,0.32866 0.89742,0.3101 2.2576,0.62294 0.90543,0.197 0.93604,0.1586 -0.21548,2.48042 1.1335,0.1392 1.18404,0.0914 2.31362,0.014 1.13954,-0.082 1.19008,-0.13 -0.22729,-2.49252 0.91021,-0.1574 0.94543,-0.1858 2.24798,-0.64756 0.86968,-0.29624 0.87104,-0.34546 1.0511,2.25408 1.02664,-0.45444 1.07784,-0.5269 2.02009,-1.13626 0.2261,-0.16619 0.24072,-0.16081 0.49606,-0.31632 0.47212,-0.34157 0.47678,-0.33163 -1.4115,-2.03745 1.4457,-1.19628 1.63996,-1.63898 0.60588,-0.73182 0.5959,-0.72713 2.00938,1.41867 0.67107,-0.9565 0.30863,-0.48392 0.32858,-0.4932 1.12814,-2.00746 0.21623,-0.52581 0.1158,-0.27254 0.135,-0.25725 0.48232,-1.07489 -2.19698,-1.03978 0.32868,-0.85754 0.31938,-0.87748 0.62296,-2.25758 0.072,-0.4707 0.0506,-0.23 0.0652,-0.22469 0.0666,-0.45607 0.0812,-0.45071 2.392,0.20812 0.1254,-1.1634 0.0808,-1.1548 -0.001,-2.29434 -0.0576,-0.59238 -0.0384,-0.57708 -0.1214,-1.14556 -2.33893,0.1922 -0.1666,-0.93013 -0.16721,-0.90556 -0.64754,-2.24802 -0.32549,-0.88034 -0.32552,-0.88034 2.08454,-0.97204 -0.41325,-0.91228 -0.5681,-1.1922 -1.13293,-1.96091 -0.65724,-0.9928 -0.66854,-0.93894 -1.8619,1.29322 -1.19164,-1.43572 -1.64363,-1.64994 -0.71651,-0.62516 -0.72252,-0.58592 1.26572,-1.81662 -0.97112,-0.67642 -0.95781,-0.6219 -1.96892,-1.09756 -1.07422,-0.5069 -1.05098,-0.45706 -0.91538,1.96896 -0.90674,-0.33002 -0.86816,-0.29944 -2.24297,-0.61762 -0.94,-0.193 -0.88686,-0.1572 0.1828,-2.18591 -1.17804,-0.1306 -1.15942,-0.0908 -2.24516,0.002 -1.16878,0.0714 -1.15088,0.136 0.1916,2.18135 -0.94477,0.1612 -0.9009,0.1772 z m 5.85849,24.55056 h 3.1144 v -3.11442 h -3.1144 v 3.11442"
       style="fill:#808080;fill-rule:evenodd;stroke:none;stroke-width:0.52990961;stroke-linecap:butt;stroke-linejoin:miter;stroke-miterlimit:4;stroke-opacity:1"
       id="Cogwheel-6spokes-square"
       inkscape:connector-curvature="0" />
  </g>
</svg>
