<?xml version="1.0" encoding="UTF-8" standalone="no"?>
<!-- Created with Inkscape (http://www.inkscape.org/) -->

<svg
   xmlns:dc="http://purl.org/dc/elements/1.1/"
   xmlns:cc="http://creativecommons.org/ns#"
   xmlns:rdf="http://www.w3.org/1999/02/22-rdf-syntax-ns#"
   xmlns:svg="http://www.w3.org/2000/svg"
   xmlns="http://www.w3.org/2000/svg"
   xmlns:sodipodi="http://sodipodi.sourceforge.net/DTD/sodipodi-0.dtd"
   xmlns:inkscape="http://www.inkscape.org/namespaces/inkscape"
   width="52.916668mm"
   height="52.85944mm"
   viewBox="0 0 52.916668 52.85944"
   version="1.1"
   id="svg6360"
   inkscape:version="0.92.0 r15299"
   sodipodi:docname="cogStyle4.svg">
  <defs
     id="defs6354" />
  <sodipodi:namedview
     id="base"
     pagecolor="#ffffff"
     bordercolor="#666666"
     borderopacity="1.0"
     inkscape:pageopacity="0.0"
     inkscape:pageshadow="2"
     inkscape:zoom="0.35"
     inkscape:cx="-315.95157"
     inkscape:cy="79.636296"
     inkscape:document-units="mm"
     inkscape:current-layer="layer1"
     showgrid="false"
     inkscape:window-width="1304"
     inkscape:window-height="745"
     inkscape:window-x="-8"
     inkscape:window-y="-8"
     inkscape:window-maximized="1" />
  <metadata
     id="metadata6357">
    <rdf:RDF>
      <cc:Work
         rdf:about="">
        <dc:format>image/svg+xml</dc:format>
        <dc:type
           rdf:resource="http://purl.org/dc/dcmitype/StillImage" />
        <dc:title></dc:title>
      </cc:Work>
    </rdf:RDF>
  </metadata>
  <g
     inkscape:label="Layer 1"
     inkscape:groupmode="layer"
     id="layer1"
     transform="translate(-66.586592,-117.04433)">
    <path
       inkscape:connector-curvature="0"
       style="color:#000000;text-indent:0;text-align:start;text-transform:none;direction:ltr;baseline-shift:baseline;fill:#808080;stroke:none;stroke-width:1.25630987;stroke-linecap:round;stroke-linejoin:round;stroke-miterlimit:4;stroke-dasharray:none;enable-background:accumulate"
       d="m 89.916484,117.04433 c 0.850806,3.11954 -3.185054,4.23293 -4.563347,1.08776 l -4.71703,2.01272 c 1.532071,2.97831 -1.529428,5.54829 -4.277719,2.72569 l -3.603994,3.20904 c 2.892702,3.12173 0.693075,5.84812 -3.152117,4.84685 l -1.899665,4.72372 c 3.475914,1.57668 2.976114,5.45364 -1.10652,5.07926 l -0.0095,5.00514 c 3.708342,0.21451 4.19357,3.88074 0.988302,5.17391 l 1.842755,4.75429 c 3.87032,-1.32063 5.35942,1.85335 2.871509,4.37489 l 3.53685,3.77428 c 3.171347,-2.73468 6.124919,-0.33196 4.827567,3.13893 l 4.787814,2.00923 c 1.379922,-3.39757 4.949012,-2.48536 5.083437,0.94373 l 5.574248,-0.0736 c 0.640885,-3.69551 2.994887,-4.16764 5.289906,-1.11099 l 4.52773,-1.97558 c -1.29817,-3.43837 1.53414,-5.2116 4.00571,-2.70116 l 3.86417,-4.02915 c -1.84008,-2.37317 -0.63691,-5.09392 2.50791,-3.69888 l 2.12376,-5.15379 c -2.80337,-1.69188 -2.6204,-4.8883 1.085,-5.11989 l -0.0168,-5.46662 c -3.66544,-0.3102 -4.08795,-3.79427 -1.22071,-4.93939 l -1.88486,-4.67934 c -3.45497,1.22449 -5.34517,-1.93324 -3.0553,-4.47581 l -3.71473,-3.69473 c -2.73429,2.47372 -5.03405,0.89185 -4.04834,-2.60949 l -4.63454,-1.90359 c -1.488711,3.33445 -5.251781,2.33184 -4.894989,-1.22071 z m -0.318275,7.32303 0.636536,9.86622 c -4.507649,1.06497 -5.848969,3.72094 -7.00183,6.68357 l -9.547956,-0.63652 c 2.060963,-8.25941 7.771946,-14.46098 15.91325,-15.91327 z m 7.001839,0 c 8.592742,2.90665 13.488572,7.66517 15.594992,15.91327 l -9.86622,0.63652 c -1.17084,-3.46561 -3.401715,-5.65005 -6.365303,-6.68357 z m -3.81918,14.6402 c 2.54611,0 4.455702,1.90959 4.455702,4.77397 0,2.22787 -1.59131,4.45572 -4.455702,4.45572 -2.546123,0 -4.455719,-1.90959 -4.455719,-4.45572 0,-2.54611 1.591335,-4.77397 4.455719,-4.77397 z m 9.547952,7.63836 9.86622,0.63654 c -3.42123,9.20749 -6.19069,12.76955 -15.594992,15.59498 l -0.636531,-9.54795 c 3.647482,-1.52595 4.773983,-2.95589 6.365303,-6.68357 z m -28.643861,0.63654 9.547956,-0.63654 c 1.486995,3.13702 3.873661,5.61236 7.00183,6.68357 l -0.636536,9.54795 c -8.065506,-1.46987 -14.058105,-8.49683 -15.91325,-15.59415 z"
       stroke-miterlimit="4"
       id="path52" />
  </g>
</svg>
