<?xml version="1.0" encoding="UTF-8" standalone="no"?>
<!-- Created with Inkscape (http://www.inkscape.org/) -->

<svg
   xmlns:dc="http://purl.org/dc/elements/1.1/"
   xmlns:cc="http://creativecommons.org/ns#"
   xmlns:rdf="http://www.w3.org/1999/02/22-rdf-syntax-ns#"
   xmlns:svg="http://www.w3.org/2000/svg"
   xmlns="http://www.w3.org/2000/svg"
   xmlns:sodipodi="http://sodipodi.sourceforge.net/DTD/sodipodi-0.dtd"
   xmlns:inkscape="http://www.inkscape.org/namespaces/inkscape"
   width="5.6002145mm"
   height="5.6003475mm"
   viewBox="0 0 5.6002145 5.6003475"
   version="1.1"
   id="svg4525"
   inkscape:version="0.92.0 r15299"
   sodipodi:docname="cwSawBlade.svg">
  <defs
     id="defs4519" />
  <sodipodi:namedview
     id="base"
     pagecolor="#ffffff"
     bordercolor="#666666"
     borderopacity="1.0"
     inkscape:pageopacity="0.0"
     inkscape:pageshadow="2"
     inkscape:zoom="5.6"
     inkscape:cx="5.1161741"
     inkscape:cy="18.409688"
     inkscape:document-units="mm"
     inkscape:current-layer="layer1"
     showgrid="false"
     inkscape:window-width="1304"
     inkscape:window-height="745"
     inkscape:window-x="-8"
     inkscape:window-y="-8"
     inkscape:window-maximized="1" />
  <metadata
     id="metadata4522">
    <rdf:RDF>
      <cc:Work
         rdf:about="">
        <dc:format>image/svg+xml</dc:format>
        <dc:type
           rdf:resource="http://purl.org/dc/dcmitype/StillImage" />
        <dc:title />
      </cc:Work>
    </rdf:RDF>
  </metadata>
  <g
     inkscape:label="Layer 1"
     inkscape:groupmode="layer"
     id="layer1"
     transform="translate(-113.61657,-83.28911)">
    <path
       inkscape:connector-curvature="0"
       style="fill:#808080;stroke-width:0.07000434"
       id="Saw-3"
       d="m 116.27026,83.289444 c 0.21618,0.0163 0.97232,0.439964 1.11687,0.501136 0.14921,0.06314 -0.22842,-0.411661 -0.0582,-0.352887 0.17021,0.05877 0.73841,0.774793 0.85129,0.887676 0.11289,0.112882 -0.0592,-0.469999 0.0768,-0.351979 0.13601,0.118021 0.39479,0.995855 0.45794,1.145065 0.0631,0.14921 0.12585,-0.452647 0.20918,-0.286039 0.0833,0.166609 -0.0127,1.084804 -0.0127,1.256934 0,0.17213 0.29401,-0.351486 0.30514,-0.16553 0.0111,0.185957 -0.43844,0.98676 -0.50159,1.13597 -0.0631,0.149211 0.41212,-0.228419 0.35334,-0.05821 -0.0588,0.170211 -0.77524,0.738413 -0.88812,0.851295 -0.11289,0.112883 0.47045,-0.05961 0.35243,0.0764 -0.11802,0.136006 -0.99631,0.395244 -1.14552,0.45839 -0.14921,0.06315 0.45265,0.125848 0.28604,0.209186 -0.16661,0.08334 -1.08435,-0.01319 -1.25648,-0.01319 -0.17213,0 0.35148,0.294462 0.16553,0.305593 -0.18596,0.01113 -0.98722,-0.438445 -1.13643,-0.501591 -0.14921,-0.06315 0.22888,0.412116 0.0587,0.353342 -0.17021,-0.05877 -0.73887,-0.775248 -0.85175,-0.88813 -0.11288,-0.112882 0.0596,0.470453 -0.0764,0.352433 -0.136,-0.118021 -0.39524,-0.99631 -0.45839,-1.14552 -0.0631,-0.149211 -0.12539,0.452647 -0.20873,0.286039 -0.0833,-0.166609 0.0127,-1.08435 0.0127,-1.256479 0,-0.17213 -0.29401,0.351031 -0.30514,0.165074 -0.0111,-0.185956 0.43799,-0.986758 0.50114,-1.135969 0.0631,-0.149211 -0.41166,0.228419 -0.35289,0.05821 0.0588,-0.170209 0.7748,-0.738411 0.88769,-0.851293 0.11288,-0.112883 -0.47,0.05961 -0.35198,-0.0764 0.11802,-0.136005 0.99586,-0.395244 1.14506,-0.45839 0.14921,-0.06315 -0.45264,-0.125393 -0.28603,-0.208731 0.1666,-0.08334 1.0848,0.01273 1.25693,0.01273 0.17213,0 -0.35149,-0.294007 -0.16553,-0.305138 0.006,-3.47e-4 0.0121,-5.27e-4 0.0191,0 z m 0.14643,2.301044 c -0.27541,0 -0.49886,0.223454 -0.49886,0.498862 0,0.275409 0.22345,0.498863 0.49886,0.498863 0.27541,0 0.49886,-0.223454 0.49886,-0.498863 0,-0.275408 -0.22345,-0.498862 -0.49886,-0.498862 z" />
  </g>
</svg>
